<?plantuml 1.2026.2beta3?><svg xmlns="http://www.w3.org/2000/svg" xmlns:xlink="http://www.w3.org/1999/xlink" contentStyleType="text/css" data-diagram-type="CLASS" height="1164px" preserveAspectRatio="none" style="width:1764px;height:1164px;background:#FFFFFF;" version="1.1" viewBox="0 0 1764 1164" width="1764px" zoomAndPan="magnify"><title>OOP Game Simulator - Abstraktn&#237; Architektura (tournament_abc.py)</title><defs/><g><g class="title" data-source-line="6"><text fill="#000000" font-family="Verdana" font-size="22" font-weight="bold" lengthAdjust="spacing" textLength="846.5596" x="454.4485" y="35.4209">OOP Game Simulator - Abstraktn&#237; Architektura (tournament_abc.py)</text></g><!--cluster game--><g class="cluster" data-qualified-name="game" data-source-line="8" id="ent0002"><path d="M774.5,430.3594 L819.0518,430.3594 A3.75,3.75 0 0 1 821.5518,432.8594 L828.5518,452.6563 L1316.5,452.6563 A2.5,2.5 0 0 1 1319,455.1563 L1319,1154.5794 A2.5,2.5 0 0 1 1316.5,1157.0794 L774.5,1157.0794 A2.5,2.5 0 0 1 772,1154.5794 L772,432.8594 A2.5,2.5 0 0 1 774.5,430.3594" fill="#FFFFFF" style="stroke:#000000;stroke-width:1;"/><line style="stroke:#000000;stroke-width:1;" x1="772" x2="828.5518" y1="452.6563" y2="452.6563"/><text fill="#000000" font-family="Verdana" font-size="14" font-weight="bold" lengthAdjust="spacing" textLength="43.5518" x="776" y="445.3545">game</text></g><!--cluster tournament_abc--><g class="cluster" data-qualified-name="tournament_abc" data-source-line="59" id="ent0012"><path d="M13.5,57.6094 L142.6055,57.6094 A3.75,3.75 0 0 1 145.1055,60.1094 L152.1055,79.9063 L745.5,79.9063 A2.5,2.5 0 0 1 748,82.4063 L748,685.8294 A2.5,2.5 0 0 1 745.5,688.3294 L13.5,688.3294 A2.5,2.5 0 0 1 11,685.8294 L11,60.1094 A2.5,2.5 0 0 1 13.5,57.6094" fill="#FFFFFF" style="stroke:#000000;stroke-width:1;"/><line style="stroke:#000000;stroke-width:1;" x1="11" x2="152.1055" y1="79.9063" y2="79.9063"/><text fill="#000000" font-family="Verdana" font-size="14" font-weight="bold" lengthAdjust="spacing" textLength="128.1055" x="15" y="72.6045">tournament_abc</text></g><!--class Gender--><g class="entity" data-qualified-name="game.Gender" data-source-line="9" id="ent0003"><rect fill="#E1F5FE" height="76.5938" rx="2.5" ry="2.5" style="stroke:#01579B;stroke-width:1;" width="79.5908" x="788.2" y="838.2594"/><ellipse cx="801.2" cy="852.2594" fill="#FFFFFF" rx="9" ry="9" style="stroke:#000000;stroke-width:1;"/><path d="M805.3094,858.2594 L797.5906,858.2594 L797.5906,845.8688 L805.3094,845.8688 L805.3094,848.025 L800.0438,848.025 L800.0438,850.6969 L804.8094,850.6969 L804.8094,852.8531 L800.0438,852.8531 L800.0438,856.1031 L805.3094,856.1031 L805.3094,858.2594 Z " fill="#000000"/><text fill="#000000" font-family="Verdana" font-size="14" lengthAdjust="spacing" textLength="51.5908" x="813.2" y="857.1061">Gender</text><line style="stroke:#01579B;stroke-width:1;" x1="789.2" x2="866.7908" y1="866.2594" y2="866.2594"/><text fill="#000000" font-family="Verdana" font-size="14" lengthAdjust="spacing" textLength="34.7197" x="794.2" y="883.2545">male</text><text fill="#000000" font-family="Verdana" font-size="14" lengthAdjust="spacing" textLength="48.2617" x="794.2" y="899.5514">female</text><line style="stroke:#01579B;stroke-width:1;" x1="789.2" x2="866.7908" y1="906.8531" y2="906.8531"/></g><!--class Dice--><g class="entity" data-qualified-name="game.Dice" data-source-line="14" id="ent0004"><rect fill="#E1F5FE" height="60.2969" rx="2.5" ry="2.5" style="stroke:#01579B;stroke-width:1;" width="185.0039" x="1117.5" y="846.4094"/><ellipse cx="1190.7617" cy="860.4094" fill="#FFFFFF" rx="9" ry="9" style="stroke:#000000;stroke-width:1;"/><path d="M1193.7305,866.05 Q1193.1523,866.3469 1192.5117,866.4875 Q1191.8711,866.6438 1191.168,866.6438 Q1188.668,866.6438 1187.3398,865.0031 Q1186.0273,863.3469 1186.0273,860.2219 Q1186.0273,857.0969 1187.3398,855.4406 Q1188.668,853.7844 1191.168,853.7844 Q1191.8711,853.7844 1192.5117,853.9406 Q1193.168,854.0969 1193.7305,854.3938 L1193.7305,857.1125 Q1193.1055,856.5344 1192.5117,856.2688 Q1191.918,855.9875 1191.293,855.9875 Q1189.9492,855.9875 1189.2617,857.0656 Q1188.5742,858.1281 1188.5742,860.2219 Q1188.5742,862.3156 1189.2617,863.3938 Q1189.9492,864.4563 1191.293,864.4563 Q1191.918,864.4563 1192.5117,864.1906 Q1193.1055,863.9094 1193.7305,863.3313 L1193.7305,866.05 Z " fill="#000000"/><text fill="#000000" font-family="Verdana" font-size="14" lengthAdjust="spacing" textLength="30.9805" x="1208.2617" y="865.2561">Dice</text><line style="stroke:#01579B;stroke-width:1;" x1="1118.5" x2="1301.5039" y1="874.4094" y2="874.4094"/><line style="stroke:#01579B;stroke-width:1;" x1="1118.5" x2="1301.5039" y1="882.4094" y2="882.4094"/><text fill="#000000" font-family="Verdana" font-size="14" lengthAdjust="spacing" text-decoration="underline" textLength="173.0039" x="1123.5" y="899.4045">+roll(max_value=6) : int</text></g><!--class Person--><g class="entity" data-qualified-name="game.Person" data-source-line="18" id="ent0005"><rect fill="#E1F5FE" height="125.4844" rx="2.5" ry="2.5" style="stroke:#01579B;stroke-width:1;" width="233.5186" x="832.24" y="1015.5994"/><ellipse cx="921.4773" cy="1029.5994" fill="#FFFFFF" rx="9" ry="9" style="stroke:#000000;stroke-width:1;"/><path d="M924.4461,1035.24 Q923.8679,1035.5369 923.2273,1035.6775 Q922.5867,1035.8338 921.8836,1035.8338 Q919.3836,1035.8338 918.0554,1034.1931 Q916.7429,1032.5369 916.7429,1029.4119 Q916.7429,1026.2869 918.0554,1024.6306 Q919.3836,1022.9744 921.8836,1022.9744 Q922.5867,1022.9744 923.2273,1023.1306 Q923.8836,1023.2869 924.4461,1023.5838 L924.4461,1026.3025 Q923.8211,1025.7244 923.2273,1025.4588 Q922.6336,1025.1775 922.0086,1025.1775 Q920.6648,1025.1775 919.9773,1026.2556 Q919.2898,1027.3181 919.2898,1029.4119 Q919.2898,1031.5056 919.9773,1032.5838 Q920.6648,1033.6463 922.0086,1033.6463 Q922.6336,1033.6463 923.2273,1033.3806 Q923.8211,1033.0994 924.4461,1032.5213 L924.4461,1035.24 Z " fill="#000000"/><text fill="#000000" font-family="Verdana" font-size="14" lengthAdjust="spacing" textLength="47.5439" x="938.9773" y="1034.4461">Person</text><line style="stroke:#01579B;stroke-width:1;" x1="833.24" x2="1064.7586" y1="1043.5994" y2="1043.5994"/><text fill="#000000" font-family="Verdana" font-size="14" lengthAdjust="spacing" textLength="112.1572" x="838.24" y="1060.5945">#nickname : str</text><text fill="#000000" font-family="Verdana" font-size="14" lengthAdjust="spacing" text-decoration="underline" textLength="133.5674" x="838.24" y="1076.8914">#_gender : Gender</text><text fill="#000000" font-family="Verdana" font-size="14" lengthAdjust="spacing" text-decoration="underline" textLength="128.4404" x="838.24" y="1093.1882">#_birth : datetime</text><text fill="#000000" font-family="Verdana" font-size="14" lengthAdjust="spacing" textLength="126.5674" x="838.24" y="1109.4851">+gender : Gender</text><line style="stroke:#01579B;stroke-width:1;" x1="833.24" x2="1064.7586" y1="1116.7869" y2="1116.7869"/><text fill="#000000" font-family="Verdana" font-size="14" lengthAdjust="spacing" textLength="221.5186" x="838.24" y="1133.782">+get_seconds_from_birth() : int</text></g><!--class Player--><g class="entity" data-qualified-name="game.Player" data-source-line="26" id="ent0006"><rect fill="#E1F5FE" height="158.0781" rx="2.5" ry="2.5" style="stroke:#01579B;stroke-width:1;" width="179.5898" x="903.21" y="797.5194"/><ellipse cx="967.4722" cy="811.5194" fill="#FFFFFF" rx="9" ry="9" style="stroke:#000000;stroke-width:1;"/><path d="M970.441,817.16 Q969.8628,817.4569 969.2222,817.5975 Q968.5816,817.7538 967.8785,817.7538 Q965.3785,817.7538 964.0503,816.1131 Q962.7378,814.4569 962.7378,811.3319 Q962.7378,808.2069 964.0503,806.5506 Q965.3785,804.8944 967.8785,804.8944 Q968.5816,804.8944 969.2222,805.0506 Q969.8785,805.2069 970.441,805.5038 L970.441,808.2225 Q969.816,807.6444 969.2222,807.3788 Q968.6285,807.0975 968.0035,807.0975 Q966.6597,807.0975 965.9722,808.1756 Q965.2847,809.2381 965.2847,811.3319 Q965.2847,813.4256 965.9722,814.5038 Q966.6597,815.5663 968.0035,815.5663 Q968.6285,815.5663 969.2222,815.3006 Q969.816,815.0194 970.441,814.4413 L970.441,817.16 Z " fill="#000000"/><text fill="#000000" font-family="Verdana" font-size="14" lengthAdjust="spacing" textLength="43.5654" x="984.9722" y="816.3661">Player</text><line style="stroke:#01579B;stroke-width:1;" x1="904.21" x2="1081.7998" y1="825.5194" y2="825.5194"/><text fill="#000000" font-family="Verdana" font-size="14" lengthAdjust="spacing" textLength="79.3516" x="909.21" y="842.5145">+state : str</text><text fill="#000000" font-family="Verdana" font-size="14" lengthAdjust="spacing" textLength="157.6025" x="909.21" y="858.8114">+count_of_games : int</text><text fill="#000000" font-family="Verdana" font-size="14" lengthAdjust="spacing" text-decoration="underline" textLength="82.1064" x="909.21" y="875.1082">#_wins : int</text><text fill="#000000" font-family="Verdana" font-size="14" lengthAdjust="spacing" textLength="91.1299" x="909.21" y="891.4051">+score : Dict</text><text fill="#000000" font-family="Verdana" font-size="14" lengthAdjust="spacing" textLength="75.1064" x="909.21" y="907.702">+wins : int</text><line style="stroke:#01579B;stroke-width:1;" x1="904.21" x2="1081.7998" y1="915.0038" y2="915.0038"/><text fill="#000000" font-family="Verdana" font-size="14" lengthAdjust="spacing" textLength="127.374" x="909.21" y="931.9989">+win_rate() : float</text><text fill="#000000" font-family="Verdana" font-size="14" lengthAdjust="spacing" textLength="167.5898" x="909.21" y="948.2957">+overall_score() : Tuple</text></g><!--class Match--><g class="entity" data-qualified-name="game.Match" data-source-line="36" id="ent0007"><rect fill="#E1F5FE" height="272.1563" rx="2.5" ry="2.5" style="stroke:#01579B;stroke-width:1;" width="284.0771" x="850.96" y="465.3594"/><ellipse cx="967.8897" cy="479.3594" fill="#FFFFFF" rx="9" ry="9" style="stroke:#000000;stroke-width:1;"/><path d="M970.8584,485 Q970.2803,485.2969 969.6397,485.4375 Q968.9991,485.5938 968.2959,485.5938 Q965.7959,485.5938 964.4678,483.9531 Q963.1553,482.2969 963.1553,479.1719 Q963.1553,476.0469 964.4678,474.3906 Q965.7959,472.7344 968.2959,472.7344 Q968.9991,472.7344 969.6397,472.8906 Q970.2959,473.0469 970.8584,473.3438 L970.8584,476.0625 Q970.2334,475.4844 969.6397,475.2188 Q969.0459,474.9375 968.4209,474.9375 Q967.0772,474.9375 966.3897,476.0156 Q965.7022,477.0781 965.7022,479.1719 Q965.7022,481.2656 966.3897,482.3438 Q967.0772,483.4063 968.4209,483.4063 Q969.0459,483.4063 969.6397,483.1406 Q970.2334,482.8594 970.8584,482.2813 L970.8584,485 Z " fill="#000000"/><text fill="#000000" font-family="Verdana" font-size="14" lengthAdjust="spacing" textLength="42.7178" x="985.3897" y="484.2061">Match</text><line style="stroke:#01579B;stroke-width:1;" x1="851.96" x2="1134.0371" y1="493.3594" y2="493.3594"/><text fill="#000000" font-family="Verdana" font-size="14" lengthAdjust="spacing" text-decoration="underline" textLength="128.7959" x="856.96" y="510.3545">#_hplayer : Player</text><text fill="#000000" font-family="Verdana" font-size="14" lengthAdjust="spacing" text-decoration="underline" textLength="128.8096" x="856.96" y="526.6514">#_gplayer : Player</text><text fill="#000000" font-family="Verdana" font-size="14" lengthAdjust="spacing" textLength="143.2607" x="856.96" y="542.9482">+winning_score : int</text><text fill="#000000" font-family="Verdana" font-size="14" lengthAdjust="spacing" textLength="155.4287" x="856.96" y="559.2451">+max_dice_value : int</text><text fill="#000000" font-family="Verdana" font-size="14" lengthAdjust="spacing" text-decoration="underline" textLength="158.7441" x="856.96" y="575.542">#_datetime : datetime</text><text fill="#000000" font-family="Verdana" font-size="14" lengthAdjust="spacing" textLength="111.3574" x="856.96" y="591.8389">+hp_points : int</text><text fill="#000000" font-family="Verdana" font-size="14" lengthAdjust="spacing" textLength="111.3711" x="856.96" y="608.1357">+gp_points : int</text><text fill="#000000" font-family="Verdana" font-size="14" lengthAdjust="spacing" text-decoration="underline" textLength="104.9727" x="856.96" y="624.4326">#_history : List</text><text fill="#000000" font-family="Verdana" font-size="14" lengthAdjust="spacing" textLength="128.7959" x="856.96" y="640.7295">+h_player : Player</text><text fill="#000000" font-family="Verdana" font-size="14" lengthAdjust="spacing" textLength="128.8096" x="856.96" y="657.0264">+g_player : Player</text><line style="stroke:#01579B;stroke-width:1;" x1="851.96" x2="1134.0371" y1="664.3281" y2="664.3281"/><text fill="#000000" font-family="Verdana" font-size="14" lengthAdjust="spacing" textLength="102.4365" x="856.96" y="681.3232">+play() : None</text><text fill="#000000" font-family="Verdana" font-size="14" lengthAdjust="spacing" textLength="113.0117" x="856.96" y="697.6201">+score() : Tuple</text><text fill="#000000" font-family="Verdana" font-size="14" lengthAdjust="spacing" textLength="138.8857" x="856.96" y="713.917">+get_history() : List</text><text fill="#000000" font-family="Verdana" font-size="14" lengthAdjust="spacing" textLength="272.0771" x="856.96" y="730.2139">+save_match_results(filename) : None</text></g><!--class BaseTournament--><g class="entity" data-qualified-name="tournament_abc.BaseTournament" data-source-line="60" id="ent0013"><rect fill="#E1F5FE" height="312.75" rx="2.5" ry="2.5" style="stroke:#01579B;stroke-width:1;" width="348.0752" x="381.96" y="92.6094"/><ellipse cx="492.2964" cy="106.6094" fill="#FFFFFF" rx="9" ry="9" style="stroke:#000000;stroke-width:1;"/><path d="M492.4058,101.9531 L491.2496,107.0313 L493.5777,107.0313 L492.4058,101.9531 Z M490.9214,99.7188 L493.9058,99.7188 L497.2652,112.1094 L494.8121,112.1094 L494.0464,109.0469 L490.7652,109.0469 L490.0152,112.1094 L487.5777,112.1094 L490.9214,99.7188 Z " fill="#000000"/><text fill="#000000" font-family="Verdana" font-size="14" font-style="italic" lengthAdjust="spacing" textLength="119.9023" x="509.7964" y="111.4561">BaseTournament</text><line style="stroke:#01579B;stroke-width:1;" x1="382.96" x2="729.0352" y1="120.6094" y2="120.6094"/><text fill="#000000" font-family="Verdana" font-size="14" lengthAdjust="spacing" textLength="245.875" x="387.96" y="137.6045">#{protected} players : List[Player]</text><text fill="#000000" font-family="Verdana" font-size="14" lengthAdjust="spacing" textLength="99.4355" x="387.96" y="153.9014">+location : str</text><text fill="#000000" font-family="Verdana" font-size="14" lengthAdjust="spacing" textLength="143.2607" x="387.96" y="170.1982">+winning_score : int</text><text fill="#000000" font-family="Verdana" font-size="14" lengthAdjust="spacing" textLength="155.4287" x="387.96" y="186.4951">+max_dice_value : int</text><text fill="#000000" font-family="Verdana" font-size="14" lengthAdjust="spacing" textLength="249.0059" x="387.96" y="202.792">#{protected} _datetime : datetime</text><text fill="#000000" font-family="Verdana" font-size="14" lengthAdjust="spacing" textLength="253.9072" x="387.96" y="219.0889">#{protected} matches : List[Match]</text><text fill="#000000" font-family="Verdana" font-size="14" lengthAdjust="spacing" textLength="186.4844" x="387.96" y="235.3857">+winner : Optional[Player]</text><text fill="#000000" font-family="Verdana" font-size="14" lengthAdjust="spacing" textLength="296.9189" x="387.96" y="251.6826">#{protected} _detailed_results : List[Dict]</text><line style="stroke:#01579B;stroke-width:1;" x1="382.96" x2="729.0352" y1="258.9844" y2="258.9844"/><text fill="#000000" font-family="Verdana" font-size="14" font-style="italic" lengthAdjust="spacing" textLength="102.4365" x="387.96" y="275.9795">+play() : None</text><text fill="#000000" font-family="Verdana" font-size="14" font-style="italic" lengthAdjust="spacing" textLength="258.7607" x="387.96" y="292.2764">+_print_tournament_header() : None</text><text fill="#000000" font-family="Verdana" font-size="14" font-style="italic" lengthAdjust="spacing" textLength="259.5264" x="387.96" y="308.5732">+_get_tournament_type_name() : str</text><text fill="#000000" font-family="Verdana" font-size="14" font-style="italic" lengthAdjust="spacing" textLength="178.7734" x="387.96" y="324.8701">+_get_total_rounds() : int</text><line style="stroke:#01579B;stroke-width:1;" x1="382.96" x2="729.0352" y1="332.1719" y2="332.1719"/><text fill="#000000" font-family="Verdana" font-size="14" lengthAdjust="spacing" textLength="208.5371" x="387.96" y="349.167">+get_standings() : List[Tuple]</text><text fill="#000000" font-family="Verdana" font-size="14" lengthAdjust="spacing" textLength="180.7559" x="387.96" y="365.4639">+print_standings() : None</text><text fill="#000000" font-family="Verdana" font-size="14" lengthAdjust="spacing" textLength="310.5498" x="387.96" y="381.7607">+save_tournament_results(filename) : None</text><text fill="#000000" font-family="Verdana" font-size="14" lengthAdjust="spacing" textLength="336.0752" x="387.96" y="398.0576">#{protected} _print_current_standings() : None</text></g><!--class RoundRobinTournament--><g class="entity" data-qualified-name="tournament_abc.RoundRobinTournament" data-source-line="81" id="ent0014"><rect fill="#E1F5FE" height="141.7813" rx="2.5" ry="2.5" style="stroke:#01579B;stroke-width:1;" width="303.833" x="27.08" y="530.5494"/><ellipse cx="89.9067" cy="544.5494" fill="#FFFFFF" rx="9" ry="9" style="stroke:#000000;stroke-width:1;"/><path d="M92.8754,550.19 Q92.2973,550.4869 91.6567,550.6275 Q91.016,550.7838 90.3129,550.7838 Q87.8129,550.7838 86.4848,549.1431 Q85.1723,547.4869 85.1723,544.3619 Q85.1723,541.2369 86.4848,539.5806 Q87.8129,537.9244 90.3129,537.9244 Q91.016,537.9244 91.6567,538.0806 Q92.3129,538.2369 92.8754,538.5338 L92.8754,541.2525 Q92.2504,540.6744 91.6567,540.4088 Q91.0629,540.1275 90.4379,540.1275 Q89.0942,540.1275 88.4067,541.2056 Q87.7192,542.2681 87.7192,544.3619 Q87.7192,546.4556 88.4067,547.5338 Q89.0942,548.5963 90.4379,548.5963 Q91.0629,548.5963 91.6567,548.3306 Q92.2504,548.0494 92.8754,547.4713 L92.8754,550.19 Z " fill="#000000"/><text fill="#000000" font-family="Verdana" font-size="14" lengthAdjust="spacing" textLength="170.6797" x="107.4067" y="549.3961">RoundRobinTournament</text><line style="stroke:#01579B;stroke-width:1;" x1="28.08" x2="329.913" y1="558.5494" y2="558.5494"/><line style="stroke:#01579B;stroke-width:1;" x1="28.08" x2="329.913" y1="566.5494" y2="566.5494"/><text fill="#000000" font-family="Verdana" font-size="14" lengthAdjust="spacing" textLength="102.4365" x="33.08" y="583.5445">+play() : None</text><text fill="#000000" font-family="Verdana" font-size="14" lengthAdjust="spacing" textLength="258.7607" x="33.08" y="599.8414">+_print_tournament_header() : None</text><text fill="#000000" font-family="Verdana" font-size="14" lengthAdjust="spacing" textLength="259.5264" x="33.08" y="616.1382">+_get_tournament_type_name() : str</text><text fill="#000000" font-family="Verdana" font-size="14" lengthAdjust="spacing" textLength="291.833" x="33.08" y="632.4351">+_generate_round_robin_schedule() : List</text><text fill="#000000" font-family="Verdana" font-size="14" lengthAdjust="spacing" textLength="206.623" x="33.08" y="648.732">+_determine_winner() : None</text><text fill="#000000" font-family="Verdana" font-size="14" lengthAdjust="spacing" textLength="178.7734" x="33.08" y="665.0289">+_get_total_rounds() : int</text></g><!--class EliminationTournament--><g class="entity" data-qualified-name="tournament_abc.EliminationTournament" data-source-line="90" id="ent0015"><rect fill="#E1F5FE" height="125.4844" rx="2.5" ry="2.5" style="stroke:#01579B;stroke-width:1;" width="366.334" x="365.83" y="538.6994"/><ellipse cx="463.1303" cy="552.6994" fill="#FFFFFF" rx="9" ry="9" style="stroke:#000000;stroke-width:1;"/><path d="M466.099,558.34 Q465.5209,558.6369 464.8803,558.7775 Q464.2397,558.9338 463.5365,558.9338 Q461.0365,558.9338 459.7084,557.2931 Q458.3959,555.6369 458.3959,552.5119 Q458.3959,549.3869 459.7084,547.7306 Q461.0365,546.0744 463.5365,546.0744 Q464.2397,546.0744 464.8803,546.2306 Q465.5365,546.3869 466.099,546.6838 L466.099,549.4025 Q465.474,548.8244 464.8803,548.5588 Q464.2865,548.2775 463.6615,548.2775 Q462.3178,548.2775 461.6303,549.3556 Q460.9428,550.4181 460.9428,552.5119 Q460.9428,554.6056 461.6303,555.6838 Q462.3178,556.7463 463.6615,556.7463 Q464.2865,556.7463 464.8803,556.4806 Q465.474,556.1994 466.099,555.6213 L466.099,558.34 Z " fill="#000000"/><text fill="#000000" font-family="Verdana" font-size="14" lengthAdjust="spacing" textLength="164.2334" x="480.6303" y="557.5461">EliminationTournament</text><line style="stroke:#01579B;stroke-width:1;" x1="366.83" x2="731.164" y1="566.6994" y2="566.6994"/><line style="stroke:#01579B;stroke-width:1;" x1="366.83" x2="731.164" y1="574.6994" y2="574.6994"/><text fill="#000000" font-family="Verdana" font-size="14" lengthAdjust="spacing" textLength="102.4365" x="371.83" y="591.6945">+play() : None</text><text fill="#000000" font-family="Verdana" font-size="14" lengthAdjust="spacing" textLength="258.7607" x="371.83" y="607.9914">+_print_tournament_header() : None</text><text fill="#000000" font-family="Verdana" font-size="14" lengthAdjust="spacing" textLength="259.5264" x="371.83" y="624.2882">+_get_tournament_type_name() : str</text><text fill="#000000" font-family="Verdana" font-size="14" lengthAdjust="spacing" textLength="354.334" x="371.83" y="640.5851">+_get_elimination_round_name(num_players) : str</text><text fill="#000000" font-family="Verdana" font-size="14" lengthAdjust="spacing" textLength="178.7734" x="371.83" y="656.882">+_get_total_rounds() : int</text></g><g class="entity" data-qualified-name="GMN20" data-source-line="106" id="ent0021"><path d="M764.99,221.2894 L764.99,244.9894 L730.29,248.9894 L764.99,252.9894 L764.99,276.6878 A0,0 0 0 0 764.99,276.6878 L981.0027,276.6878 A0,0 0 0 0 981.0027,276.6878 L981.0027,231.2894 L971.0027,221.2894 L764.99,221.2894 A0,0 0 0 0 764.99,221.2894" fill="#FFFFFF" style="stroke:#000000;stroke-width:1;"/><path d="M971.0027,221.2894 L971.0027,231.2894 L981.0027,231.2894 L971.0027,221.2894" fill="#FFFFFF" style="stroke:#000000;stroke-width:1;"/><text fill="#000000" font-family="Verdana" font-size="13" lengthAdjust="spacing" textLength="193.1592" x="770.99" y="238.3563">Abstraktn&#237; b&#225;zov&#225; t&#345;&#237;da (ABC)</text><text fill="#000000" font-family="Verdana" font-size="13" lengthAdjust="spacing" textLength="195.0127" x="770.99" y="253.4891">definuje kontrakt pro v&#353;echny</text><text fill="#000000" font-family="Verdana" font-size="13" lengthAdjust="spacing" textLength="79.606" x="770.99" y="268.6219">typy turnaj&#367;</text></g><g class="entity" data-qualified-name="GMN23" data-source-line="112" id="ent0024"><path d="M1334.75,573.7394 L1334.75,629.1378 L1541.2476,629.1378 L1541.2476,583.7394 L1531.2476,573.7394 L1334.75,573.7394" fill="#FFFFFF" style="stroke:#000000;stroke-width:1;"/><path d="M1531.2476,573.7394 L1531.2476,583.7394 L1541.2476,583.7394 L1531.2476,573.7394" fill="#FFFFFF" style="stroke:#000000;stroke-width:1;"/><text fill="#000000" font-family="Verdana" font-size="13" lengthAdjust="spacing" textLength="159.9165" x="1340.75" y="590.8063">Konkr&#233;tn&#237; implementace</text><text fill="#000000" font-family="Verdana" font-size="13" lengthAdjust="spacing" textLength="185.4976" x="1340.75" y="605.9391">pro turnaj "Ka&#382;d&#253; s ka&#382;d&#253;m"</text><text fill="#000000" font-family="Verdana" font-size="13" lengthAdjust="spacing" textLength="120.0913" x="1340.75" y="621.0719">s generov&#225;n&#237;m kol</text></g><g class="entity" data-qualified-name="GMN26" data-source-line="118" id="ent0027"><path d="M1576.54,573.7394 L1576.54,629.1378 L1757.4565,629.1378 L1757.4565,583.7394 L1747.4565,573.7394 L1576.54,573.7394" fill="#FFFFFF" style="stroke:#000000;stroke-width:1;"/><path d="M1747.4565,573.7394 L1747.4565,583.7394 L1757.4565,583.7394 L1747.4565,573.7394" fill="#FFFFFF" style="stroke:#000000;stroke-width:1;"/><text fill="#000000" font-family="Verdana" font-size="13" lengthAdjust="spacing" textLength="159.9165" x="1582.54" y="590.8063">Konkr&#233;tn&#237; implementace</text><text fill="#000000" font-family="Verdana" font-size="13" lengthAdjust="spacing" textLength="146.707" x="1582.54" y="605.9391">pro vy&#345;azovac&#237; syst&#233;m</text><text fill="#000000" font-family="Verdana" font-size="13" lengthAdjust="spacing" textLength="111.4902" x="1582.54" y="621.0719">(pavouk/bracket)</text></g><!--reverse link Gender to Person--><g class="link" data-entity-1="ent0003" data-entity-2="ent0005" data-link-type="dependency" data-source-line="53" id="lnk8"><path codeLine="53" d="M853.8684,920.2614 C870.9184,948.4114 891.51,982.4094 911.36,1015.1894" fill="none" id="Gender-backto-Person" style="stroke:#000000;stroke-width:1;"/><polygon fill="#000000" points="850.76,915.1294,852.0012,924.8997,853.3503,919.4061,858.844,920.7552,850.76,915.1294" style="stroke:#000000;stroke-width:1;"/></g><!--link Player to Person--><g class="link" data-entity-1="ent0006" data-entity-2="ent0005" data-link-type="extension" data-source-line="54" id="lnk9"><path codeLine="54" d="M975.74,955.9394 C971.4,975.6194 970.678,978.8799 966.548,997.6499" fill="none" id="Player-to-Person" style="stroke:#000000;stroke-width:1;"/><polygon fill="none" points="962.68,1015.2294,972.4079,998.9392,960.6882,996.3605,962.68,1015.2294" style="stroke:#000000;stroke-width:1;"/></g><!--reverse link Match to Player--><g class="link" data-entity-1="ent0007" data-entity-2="ent0006" data-link-type="aggregation" data-source-line="55" id="lnk10"><path codeLine="55" d="M993,749.7994 C993,770.1894 993,778.6094 993,797.2494" fill="none" id="Match-backto-Player" style="stroke:#000000;stroke-width:1;"/><polygon fill="none" points="993,737.7994,989,743.7994,993,749.7994,997,743.7994,993,737.7994" style="stroke:#000000;stroke-width:1;"/></g><!--link Match to Dice--><g class="link" data-entity-1="ent0007" data-entity-2="ent0004" data-link-type="dependency" data-source-line="56" id="lnk11"><path codeLine="56" d="M1100.55,737.7994 C1132.94,778.5694 1161.7276,814.7916 1182.7976,841.3116" fill="none" id="Match-to-Dice" style="stroke:#000000;stroke-width:1;"/><polygon fill="#000000" points="1186.53,846.0094,1184.0633,836.4744,1183.4197,842.0945,1177.7996,841.4509,1186.53,846.0094" style="stroke:#000000;stroke-width:1;"/></g><!--reverse link BaseTournament to RoundRobinTournament--><g class="link" data-entity-1="ent0013" data-entity-2="ent0014" data-link-type="extension" data-source-line="98" id="lnk16"><path codeLine="98" d="M368.0856,403.8229 C356.5956,413.9829 358.79,412.2694 348,422.3594 C311.57,456.4194 273.14,496.5394 242.15,530.0694" fill="none" id="BaseTournament-backto-RoundRobinTournament" style="stroke:#000000;stroke-width:1;"/><polygon fill="none" points="381.57,391.8994,364.1111,399.3281,372.0601,408.3177,381.57,391.8994" style="stroke:#000000;stroke-width:1;"/></g><!--reverse link BaseTournament to EliminationTournament--><g class="link" data-entity-1="ent0013" data-entity-2="ent0015" data-link-type="extension" data-source-line="99" id="lnk17"><path codeLine="99" d="M552.5299,423.7358 C551.5899,470.7158 550.97,501.5894 550.23,538.6194" fill="none" id="BaseTournament-backto-EliminationTournament" style="stroke:#000000;stroke-width:1;"/><polygon fill="none" points="552.89,405.7394,546.5311,423.6157,558.5287,423.8558,552.89,405.7394" style="stroke:#000000;stroke-width:1;"/></g><!--reverse link BaseTournament to Match--><g class="link" data-entity-1="ent0013" data-entity-2="ent0007" data-link-type="aggregation" data-source-line="102" id="lnk18"><path codeLine="102" d="M740.862,402.4671 C746.362,405.5571 741.44,402.6194 747,405.3594 C776.09,419.7394 789.75,406.3894 818,422.3594 C838.66,434.0394 858.49,448.8694 876.89,464.9694" fill="none" id="BaseTournament-backto-Match" style="stroke:#000000;stroke-width:1;"/><polygon fill="none" points="730.4,396.5894,733.6717,403.0156,740.862,402.4671,737.5902,396.0409,730.4,396.5894" style="stroke:#000000;stroke-width:1;"/><text fill="#000000" font-family="Verdana" font-size="13" lengthAdjust="spacing" textLength="36.5625" x="833.5713" y="454.1666">many</text></g><!--reverse link BaseTournament to Player--><g class="link" data-entity-1="ent0013" data-entity-2="ent0006" data-link-type="aggregation" data-source-line="103" id="lnk19"><path codeLine="103" d="M737.7967,403.7665 C744.8967,412.8565 744.1,412.7594 750,422.3594 C825.82,545.7694 756.28,614.6594 833,737.5194 C843.25,753.9294 872.23,780.2594 902.75,805.5494" fill="none" id="BaseTournament-backto-Player" style="stroke:#000000;stroke-width:1;"/><polygon fill="none" points="730.41,394.3094,730.951,401.5002,737.7967,403.7665,737.2557,396.5757,730.41,394.3094" style="stroke:#000000;stroke-width:1;"/><text fill="#000000" font-family="Verdana" font-size="13" lengthAdjust="spacing" textLength="36.5625" x="858.4833" y="796.6105">many</text></g><!--link RoundRobinTournament to GMN23--><g class="link" data-entity-1="ent0014" data-entity-2="ent0024" data-link-type="association" data-source-line="112" id="lnk25"><path d="M220.24,530.1794 C252.59,483.4094 302.62,428.3194 365.5,413.8594 C390.84,408.0294 1276.16,408.0294 1301.5,413.8594 C1375.88,430.9694 1414.94,525.5294 1430.21,573.5094" fill="none" id="RoundRobinTournament-GMN23" style="stroke:#000000;stroke-width:1;stroke-dasharray:7,7;"/></g><!--link EliminationTournament to GMN26--><g class="link" data-entity-1="ent0015" data-entity-2="ent0027" data-link-type="association" data-source-line="118" id="lnk28"><path d="M600.97,538.3494 C645.14,490.9694 713.38,431.3694 789.5,413.8594 C830.21,404.4994 1500.79,404.4994 1541.5,413.8594 C1613.86,430.4994 1647.86,525.2894 1660.64,573.4094" fill="none" id="EliminationTournament-GMN26" style="stroke:#000000;stroke-width:1;stroke-dasharray:7,7;"/></g><?plantuml-src nLRDZjis4BxhATZDnGj3RN98YoxI0Blf9YZITeCajo0WQ6fiCQ98WQJSECa-I8vxp2784wGNm-_LuOzbMPQtGI-z6FBCSEQRRpwEz9qheGRII2PKPYkX6cPOJRXarfuxPyIiTV0Rr-g5U0VaxZ3aWl5gONIhYaTQQaFkNDvxVF_nvK6ODWMO57BttlsVVhx8CYUS179rzOmyOGZXXQXRoHn6vEHyPfrXbLFhp-JSy58ug5nh69autHg5uSfHDkFVDwlJB6iG15i0MVWqxpD2GBKrUG8AQuR_XDHCGdYOGtgypl0dW2E_2WufRlhUEkO4loP6IpcfsLkwPBA5Ntuy9MT4ABT_yXaOgrKwUqS9Ndbi68dmewtBHnSHpra2DdJFX74bUWlcm8awefsE7KAZenPm9eMbSwFhU7OoZb2oLSV2r5Vhmvjo79sZUauzTxPBi8ViBw7wdgdbslWaI5ko32FmFpLOAK2QIysINI_1C2bfo12SBzjcE8q_cEFbbj8TYhA9dPobbWxe7VDx94ge1TrYxY3woHOuzpZUySQtepYOIjdGHkE1lQON8yO-Vc5Hsojq_evFAGyT1RqODtjZ8ErFhQ0tYZqYapnIjU3QrRDi2RJs_583jfNEJkP2WjTiBs-OHRez3_8yYHnjIKjv_k7XpXZ7fNtS5ciqvVd3SBEowzqDtR-zOSWiN7NkqlGlc8MNNLGdWyPe1zn1SKqYDpOrzYfMVHqRb9eZtNWZUnB_BnBebJkgWhseG2fqe083htVrmool6W-DoJt8WrhW60was8vdcyzVjHYVvsbFRNcBX0nqqVFInc1VjCTy2Gn7Uyi9Bw1Ul5irGFrpEDBnUdZ2CKd3ky3sTj4ESbXRZga2fs4xPRuAoarSHQpxGJsrU_dsWDsYuI6nCJ5lZO5Z1NehwBbluhcU2NKWnR5R-8qKVoEl_aK1Vdj6Bl4NSQ1wIoXQ2OCRxHK3fXOAQDJPUCtHoVGQlfG2SuIhy_zqx2Zi8AJ6Go2-oTCsj8TdRcjii4WUVC0DDJRN8w6ZZFXLDWZsY--aPcfr4jVUBVwq7pE5iYH6B4hqpWV54Kt_ssUsldcdb-iRuZOVrvyB_FuvltXqYa45p8Lgtm2fj0hH1DLEbfiRuALQOG1IlIBEftsp-PBXCYU-xB3u4KAUQbMPzQS0GTHuFRsTSJzLNoQc9ITFsURlOlsLM5B5f_e48om90lQmyNoD2ENH-kCi_ok0vMhpaI4nZAFVhgnRVwhHDMdOKhVL3pFSIXMuqwxiFm00?></g></svg>