<?plantuml 1.2026.2beta3?><svg xmlns="http://www.w3.org/2000/svg" xmlns:xlink="http://www.w3.org/1999/xlink" contentStyleType="text/css" data-diagram-type="CLASS" height="1285px" preserveAspectRatio="none" style="width:711px;height:1285px;background:#FFFFFF;" version="1.1" viewBox="0 0 711 1285" width="711px" zoomAndPan="magnify"><defs/><g><!--cluster game--><g class="cluster" data-qualified-name="game" data-source-line="3" id="ent0002"><path d="M336.5,363.86 L381.0518,363.86 A3.75,3.75 0 0 1 383.5518,366.36 L390.5518,386.1569 L683.5,386.1569 A2.5,2.5 0 0 1 686,388.6569 L686,1275.67 A2.5,2.5 0 0 1 683.5,1278.17 L336.5,1278.17 A2.5,2.5 0 0 1 334,1275.67 L334,366.36 A2.5,2.5 0 0 1 336.5,363.86" fill="none" style="stroke:#000000;stroke-width:1.5;"/><line style="stroke:#000000;stroke-width:1.5;" x1="334" x2="390.5518" y1="386.1569" y2="386.1569"/><text fill="#000000" font-family="sans-serif" font-size="14" font-weight="bold" lengthAdjust="spacing" textLength="43.5518" x="338" y="378.8551">game</text></g><!--cluster tournament--><g class="cluster" data-qualified-name="tournament" data-source-line="49" id="ent0008"><path d="M8.5,6 L102.8379,6 A3.75,3.75 0 0 1 105.3379,8.5 L112.3379,28.2969 L307.5,28.2969 A2.5,2.5 0 0 1 310,30.7969 L310,590.73 A2.5,2.5 0 0 1 307.5,593.23 L8.5,593.23 A2.5,2.5 0 0 1 6,590.73 L6,8.5 A2.5,2.5 0 0 1 8.5,6" fill="none" style="stroke:#000000;stroke-width:1.5;"/><line style="stroke:#000000;stroke-width:1.5;" x1="6" x2="112.3379" y1="28.2969" y2="28.2969"/><text fill="#000000" font-family="sans-serif" font-size="14" font-weight="bold" lengthAdjust="spacing" textLength="93.3379" x="10" y="20.9951">tournament</text></g><!--class Gender--><g class="entity" data-qualified-name="game.Gender" data-source-line="4" id="ent0003"><rect fill="#F1F1F1" height="80.5938" rx="2.5" ry="2.5" style="stroke:#181818;stroke-width:0.5;" width="83.5908" x="527.2" y="1181.58"/><ellipse cx="542.2" cy="1197.58" fill="#EB937F" rx="11" ry="11" style="stroke:#181818;stroke-width:1;"/><path d="M546.3094,1203.58 L538.5906,1203.58 L538.5906,1191.1894 L546.3094,1191.1894 L546.3094,1193.3456 L541.0438,1193.3456 L541.0438,1196.0175 L545.8094,1196.0175 L545.8094,1198.1738 L541.0438,1198.1738 L541.0438,1201.4238 L546.3094,1201.4238 L546.3094,1203.58 Z " fill="#000000"/><text fill="#000000" font-family="sans-serif" font-size="14" lengthAdjust="spacing" textLength="51.5908" x="556.2" y="1202.4267">Gender</text><line style="stroke:#181818;stroke-width:0.5;" x1="528.2" x2="609.7908" y1="1213.58" y2="1213.58"/><text fill="#000000" font-family="sans-serif" font-size="14" lengthAdjust="spacing" textLength="34.7197" x="533.2" y="1230.5751">male</text><text fill="#000000" font-family="sans-serif" font-size="14" lengthAdjust="spacing" textLength="48.2617" x="533.2" y="1246.872">female</text><line style="stroke:#181818;stroke-width:0.5;" x1="528.2" x2="609.7908" y1="1254.1738" y2="1254.1738"/></g><!--class Dice--><g class="entity" data-qualified-name="game.Dice" data-source-line="9" id="ent0004"><rect fill="#F1F1F1" height="64.2969" rx="2.5" ry="2.5" style="stroke:#181818;stroke-width:0.5;" width="153.1348" x="350.43" y="800.9"/><ellipse cx="407.2571" cy="816.9" fill="#ADD1B2" rx="11" ry="11" style="stroke:#181818;stroke-width:1;"/><path d="M410.2259,822.5406 Q409.6478,822.8375 409.0071,822.9781 Q408.3665,823.1344 407.6634,823.1344 Q405.1634,823.1344 403.8353,821.4938 Q402.5228,819.8375 402.5228,816.7125 Q402.5228,813.5875 403.8353,811.9313 Q405.1634,810.275 407.6634,810.275 Q408.3665,810.275 409.0071,810.4313 Q409.6634,810.5875 410.2259,810.8844 L410.2259,813.6031 Q409.6009,813.025 409.0071,812.7594 Q408.4134,812.4781 407.7884,812.4781 Q406.4446,812.4781 405.7571,813.5563 Q405.0696,814.6188 405.0696,816.7125 Q405.0696,818.8063 405.7571,819.8844 Q406.4446,820.9469 407.7884,820.9469 Q408.4134,820.9469 409.0071,820.6813 Q409.6009,820.4 410.2259,819.8219 L410.2259,822.5406 Z " fill="#000000"/><text fill="#000000" font-family="sans-serif" font-size="14" lengthAdjust="spacing" textLength="30.9805" x="427.7571" y="821.7467">Dice</text><line style="stroke:#181818;stroke-width:0.5;" x1="351.43" x2="502.5648" y1="832.9" y2="832.9"/><line style="stroke:#181818;stroke-width:0.5;" x1="351.43" x2="502.5648" y1="840.9" y2="840.9"/><text fill="#000000" font-family="sans-serif" font-size="14" lengthAdjust="spacing" textLength="141.1348" x="356.43" y="857.8951">+roll(max_value=6)</text></g><!--class Person--><g class="entity" data-qualified-name="game.Person" data-source-line="13" id="ent0005"><rect fill="#F1F1F1" height="129.4844" rx="2.5" ry="2.5" style="stroke:#181818;stroke-width:0.5;" width="201.6494" x="468.18" y="975.09"/><ellipse cx="540.9827" cy="991.09" fill="#ADD1B2" rx="11" ry="11" style="stroke:#181818;stroke-width:1;"/><path d="M543.9515,996.7306 Q543.3734,997.0275 542.7327,997.1681 Q542.0921,997.3244 541.389,997.3244 Q538.889,997.3244 537.5609,995.6838 Q536.2484,994.0275 536.2484,990.9025 Q536.2484,987.7775 537.5609,986.1213 Q538.889,984.465 541.389,984.465 Q542.0921,984.465 542.7327,984.6213 Q543.389,984.7775 543.9515,985.0744 L543.9515,987.7931 Q543.3265,987.215 542.7327,986.9494 Q542.139,986.6681 541.514,986.6681 Q540.1702,986.6681 539.4827,987.7463 Q538.7952,988.8088 538.7952,990.9025 Q538.7952,992.9963 539.4827,994.0744 Q540.1702,995.1369 541.514,995.1369 Q542.139,995.1369 542.7327,994.8713 Q543.3265,994.59 543.9515,994.0119 L543.9515,996.7306 Z " fill="#000000"/><text fill="#000000" font-family="sans-serif" font-size="14" lengthAdjust="spacing" textLength="47.5439" x="561.4827" y="995.9367">Person</text><line style="stroke:#181818;stroke-width:0.5;" x1="469.18" x2="668.8294" y1="1007.09" y2="1007.09"/><text fill="#000000" font-family="sans-serif" font-size="14" lengthAdjust="spacing" textLength="73.3223" x="474.18" y="1024.0851">-nickname</text><text fill="#000000" font-family="sans-serif" font-size="14" lengthAdjust="spacing" textLength="61.6807" x="474.18" y="1040.382">-_gender</text><text fill="#000000" font-family="sans-serif" font-size="14" lengthAdjust="spacing" textLength="44.9463" x="474.18" y="1056.6789">-_birth</text><text fill="#000000" font-family="sans-serif" font-size="14" lengthAdjust="spacing" textLength="61.3594" x="474.18" y="1072.9757">+gender</text><line style="stroke:#181818;stroke-width:0.5;" x1="469.18" x2="668.8294" y1="1080.2775" y2="1080.2775"/><text fill="#000000" font-family="sans-serif" font-size="14" lengthAdjust="spacing" textLength="189.6494" x="474.18" y="1097.2726">+get_seconds_from_birth()</text></g><!--class Player--><g class="entity" data-qualified-name="game.Player" data-source-line="21" id="ent0006"><rect fill="#F1F1F1" height="162.0781" rx="2.5" ry="2.5" style="stroke:#181818;stroke-width:0.5;" width="131.0547" x="538.47" y="752.01"/><ellipse cx="578.4402" cy="768.01" fill="#ADD1B2" rx="11" ry="11" style="stroke:#181818;stroke-width:1;"/><path d="M581.4089,773.6506 Q580.8308,773.9475 580.1902,774.0881 Q579.5495,774.2444 578.8464,774.2444 Q576.3464,774.2444 575.0183,772.6038 Q573.7058,770.9475 573.7058,767.8225 Q573.7058,764.6975 575.0183,763.0413 Q576.3464,761.385 578.8464,761.385 Q579.5495,761.385 580.1902,761.5413 Q580.8464,761.6975 581.4089,761.9944 L581.4089,764.7131 Q580.7839,764.135 580.1902,763.8694 Q579.5964,763.5881 578.9714,763.5881 Q577.6277,763.5881 576.9402,764.6663 Q576.2527,765.7288 576.2527,767.8225 Q576.2527,769.9163 576.9402,770.9944 Q577.6277,772.0569 578.9714,772.0569 Q579.5964,772.0569 580.1902,771.7913 Q580.7839,771.51 581.4089,770.9319 L581.4089,773.6506 Z " fill="#000000"/><text fill="#000000" font-family="sans-serif" font-size="14" lengthAdjust="spacing" textLength="43.5654" x="597.9891" y="772.8567">Player</text><line style="stroke:#181818;stroke-width:0.5;" x1="539.47" x2="668.5247" y1="784.01" y2="784.01"/><text fill="#000000" font-family="sans-serif" font-size="14" lengthAdjust="spacing" textLength="40.5166" x="544.47" y="801.0051">-state</text><text fill="#000000" font-family="sans-serif" font-size="14" lengthAdjust="spacing" textLength="119.0547" x="544.47" y="817.302">-count_of_games</text><text fill="#000000" font-family="sans-serif" font-size="14" lengthAdjust="spacing" textLength="43.5586" x="544.47" y="833.5989">-_wins</text><text fill="#000000" font-family="sans-serif" font-size="14" lengthAdjust="spacing" textLength="42.9775" x="544.47" y="849.8957">-score</text><text fill="#000000" font-family="sans-serif" font-size="14" lengthAdjust="spacing" textLength="43.2373" x="544.47" y="866.1926">+wins</text><line style="stroke:#181818;stroke-width:0.5;" x1="539.47" x2="668.5247" y1="873.4944" y2="873.4944"/><text fill="#000000" font-family="sans-serif" font-size="14" lengthAdjust="spacing" textLength="82.3047" x="544.47" y="890.4895">+win_rate()</text><text fill="#000000" font-family="sans-serif" font-size="14" lengthAdjust="spacing" textLength="115.1582" x="544.47" y="906.7864">+overall_score()</text></g><!--class Match--><g class="entity" data-qualified-name="game.Match" data-source-line="31" id="ent0007"><rect fill="#F1F1F1" height="276.1563" rx="2.5" ry="2.5" style="stroke:#181818;stroke-width:0.5;" width="233.9355" x="350.03" y="398.86"/><ellipse cx="441.3889" cy="414.86" fill="#ADD1B2" rx="11" ry="11" style="stroke:#181818;stroke-width:1;"/><path d="M444.3576,420.5006 Q443.7795,420.7975 443.1389,420.9381 Q442.4983,421.0944 441.7951,421.0944 Q439.2951,421.0944 437.967,419.4538 Q436.6545,417.7975 436.6545,414.6725 Q436.6545,411.5475 437.967,409.8913 Q439.2951,408.235 441.7951,408.235 Q442.4983,408.235 443.1389,408.3913 Q443.7951,408.5475 444.3576,408.8444 L444.3576,411.5631 Q443.7326,410.985 443.1389,410.7194 Q442.5451,410.4381 441.9201,410.4381 Q440.5764,410.4381 439.8889,411.5163 Q439.2014,412.5788 439.2014,414.6725 Q439.2014,416.7663 439.8889,417.8444 Q440.5764,418.9069 441.9201,418.9069 Q442.5451,418.9069 443.1389,418.6413 Q443.7326,418.36 444.3576,417.7819 L444.3576,420.5006 Z " fill="#000000"/><text fill="#000000" font-family="sans-serif" font-size="14" lengthAdjust="spacing" textLength="42.7178" x="461.8889" y="419.7067">Match</text><line style="stroke:#181818;stroke-width:0.5;" x1="351.03" x2="582.9655" y1="430.86" y2="430.86"/><text fill="#000000" font-family="sans-serif" font-size="14" lengthAdjust="spacing" textLength="64.9346" x="356.03" y="447.8551">-_hplayer</text><text fill="#000000" font-family="sans-serif" font-size="14" lengthAdjust="spacing" textLength="64.9482" x="356.03" y="464.152">-_gplayer</text><text fill="#000000" font-family="sans-serif" font-size="14" lengthAdjust="spacing" textLength="104.7129" x="356.03" y="480.4489">-winning_score</text><text fill="#000000" font-family="sans-serif" font-size="14" lengthAdjust="spacing" textLength="116.8809" x="356.03" y="496.7457">-max_dice_value</text><text fill="#000000" font-family="sans-serif" font-size="14" lengthAdjust="spacing" textLength="75.25" x="356.03" y="513.0426">-_datetime</text><text fill="#000000" font-family="sans-serif" font-size="14" lengthAdjust="spacing" textLength="72.8096" x="356.03" y="529.3395">-hp_points</text><text fill="#000000" font-family="sans-serif" font-size="14" lengthAdjust="spacing" textLength="72.8232" x="356.03" y="545.6364">-gp_points</text><text fill="#000000" font-family="sans-serif" font-size="14" lengthAdjust="spacing" textLength="60.2041" x="356.03" y="561.9332">-_history</text><text fill="#000000" font-family="sans-serif" font-size="14" lengthAdjust="spacing" textLength="71.6133" x="356.03" y="578.2301">+h_player</text><text fill="#000000" font-family="sans-serif" font-size="14" lengthAdjust="spacing" textLength="71.627" x="356.03" y="594.527">+g_player</text><line style="stroke:#181818;stroke-width:0.5;" x1="351.03" x2="582.9655" y1="601.8288" y2="601.8288"/><text fill="#000000" font-family="sans-serif" font-size="14" lengthAdjust="spacing" textLength="52.2949" x="356.03" y="618.8239">+play()</text><text fill="#000000" font-family="sans-serif" font-size="14" lengthAdjust="spacing" textLength="60.5801" x="356.03" y="635.1207">+score()</text><text fill="#000000" font-family="sans-serif" font-size="14" lengthAdjust="spacing" textLength="100.7959" x="356.03" y="651.4176">+get_history()</text><text fill="#000000" font-family="sans-serif" font-size="14" lengthAdjust="spacing" textLength="221.9355" x="356.03" y="667.7145">+save_match_results(filename)</text></g><!--class TournamentType--><g class="entity" data-qualified-name="tournament.TournamentType" data-source-line="50" id="ent0009"><rect fill="#F1F1F1" height="80.5938" rx="2.5" ry="2.5" style="stroke:#181818;stroke-width:0.5;" width="152.1484" x="81.93" y="496.64"/><ellipse cx="96.93" cy="512.64" fill="#EB937F" rx="11" ry="11" style="stroke:#181818;stroke-width:1;"/><path d="M101.0394,518.64 L93.3206,518.64 L93.3206,506.2494 L101.0394,506.2494 L101.0394,508.4056 L95.7738,508.4056 L95.7738,511.0775 L100.5394,511.0775 L100.5394,513.2338 L95.7738,513.2338 L95.7738,516.4838 L101.0394,516.4838 L101.0394,518.64 Z " fill="#000000"/><text fill="#000000" font-family="sans-serif" font-size="14" lengthAdjust="spacing" textLength="120.1484" x="110.93" y="517.4867">TournamentType</text><line style="stroke:#181818;stroke-width:0.5;" x1="82.93" x2="233.0784" y1="528.64" y2="528.64"/><text fill="#000000" font-family="sans-serif" font-size="14" lengthAdjust="spacing" textLength="104.2002" x="87.93" y="545.6351">ROUND_ROBIN</text><text fill="#000000" font-family="sans-serif" font-size="14" lengthAdjust="spacing" textLength="91.2051" x="87.93" y="561.932">ELIMINATION</text><line style="stroke:#181818;stroke-width:0.5;" x1="82.93" x2="233.0784" y1="569.2338" y2="569.2338"/></g><!--class Tournament--><g class="entity" data-qualified-name="tournament.Tournament" data-source-line="55" id="ent0010"><rect fill="#F1F1F1" height="259.8594" rx="2.5" ry="2.5" style="stroke:#181818;stroke-width:0.5;" width="272.4082" x="21.8" y="41"/><ellipse cx="110.8483" cy="57" fill="#ADD1B2" rx="11" ry="11" style="stroke:#181818;stroke-width:1;"/><path d="M113.8171,62.6406 Q113.239,62.9375 112.5983,63.0781 Q111.9577,63.2344 111.2546,63.2344 Q108.7546,63.2344 107.4265,61.5938 Q106.114,59.9375 106.114,56.8125 Q106.114,53.6875 107.4265,52.0313 Q108.7546,50.375 111.2546,50.375 Q111.9577,50.375 112.5983,50.5313 Q113.2546,50.6875 113.8171,50.9844 L113.8171,53.7031 Q113.1921,53.125 112.5983,52.8594 Q112.0046,52.5781 111.3796,52.5781 Q110.0358,52.5781 109.3483,53.6563 Q108.6608,54.7188 108.6608,56.8125 Q108.6608,58.9063 109.3483,59.9844 Q110.0358,61.0469 111.3796,61.0469 Q112.0046,61.0469 112.5983,60.7813 Q113.1921,60.5 113.8171,59.9219 L113.8171,62.6406 Z " fill="#000000"/><text fill="#000000" font-family="sans-serif" font-size="14" lengthAdjust="spacing" textLength="85.8115" x="131.3483" y="61.8467">Tournament</text><line style="stroke:#181818;stroke-width:0.5;" x1="22.8" x2="293.2082" y1="73" y2="73"/><text fill="#000000" font-family="sans-serif" font-size="14" lengthAdjust="spacing" textLength="56.3555" x="27.8" y="89.9951">-players</text><text fill="#000000" font-family="sans-serif" font-size="14" lengthAdjust="spacing" textLength="60.6006" x="27.8" y="106.292">-location</text><text fill="#000000" font-family="sans-serif" font-size="14" lengthAdjust="spacing" textLength="126.0752" x="27.8" y="122.5889">-tournament_type</text><text fill="#000000" font-family="sans-serif" font-size="14" lengthAdjust="spacing" textLength="104.7129" x="27.8" y="138.8857">-winning_score</text><text fill="#000000" font-family="sans-serif" font-size="14" lengthAdjust="spacing" textLength="116.8809" x="27.8" y="155.1826">-max_dice_value</text><text fill="#000000" font-family="sans-serif" font-size="14" lengthAdjust="spacing" textLength="75.25" x="27.8" y="171.4795">-_datetime</text><text fill="#000000" font-family="sans-serif" font-size="14" lengthAdjust="spacing" textLength="65.2354" x="27.8" y="187.7764">-matches</text><text fill="#000000" font-family="sans-serif" font-size="14" lengthAdjust="spacing" textLength="52.5068" x="27.8" y="204.0732">-winner</text><text fill="#000000" font-family="sans-serif" font-size="14" lengthAdjust="spacing" textLength="123.1084" x="27.8" y="220.3701">-_detailed_results</text><line style="stroke:#181818;stroke-width:0.5;" x1="22.8" x2="293.2082" y1="227.6719" y2="227.6719"/><text fill="#000000" font-family="sans-serif" font-size="14" lengthAdjust="spacing" textLength="52.2949" x="27.8" y="244.667">+play()</text><text fill="#000000" font-family="sans-serif" font-size="14" lengthAdjust="spacing" textLength="120.709" x="27.8" y="260.9639">+get_standings()</text><text fill="#000000" font-family="sans-serif" font-size="14" lengthAdjust="spacing" textLength="130.6143" x="27.8" y="277.2607">+print_standings()</text><text fill="#000000" font-family="sans-serif" font-size="14" lengthAdjust="spacing" textLength="260.4082" x="27.8" y="293.5576">+save_tournament_results(filename)</text></g><!--link Person to Gender--><g class="link" data-entity-1="ent0005" data-entity-2="ent0003" data-link-type="dependency" data-source-line="72" id="lnk11"><path codeLine="72" d="M569,1105.07 C569,1130.52 569,1152.97 569,1175.3" fill="none" id="Person-to-Gender" style="stroke:#181818;stroke-width:1;"/><polygon fill="#181818" points="569,1181.3,573,1172.3,569,1176.3,565,1172.3,569,1181.3" style="stroke:#181818;stroke-width:1;"/><text fill="#000000" font-family="sans-serif" font-size="13" lengthAdjust="spacing" textLength="29.7832" x="570" y="1147.6469">uses</text></g><!--link Player to Person--><g class="link" data-entity-1="ent0006" data-entity-2="ent0005" data-link-type="extension" data-source-line="73" id="lnk12"><path codeLine="73" d="M590.27,914.4 C586.84,934.46 586.2398,937.9568 582.9698,957.1068" fill="none" id="Player-to-Person" style="stroke:#181818;stroke-width:1;"/><polygon fill="none" points="579.94,974.85,588.8842,958.1167,577.0554,956.0969,579.94,974.85" style="stroke:#181818;stroke-width:1;"/></g><!--link Match to Player--><g class="link" data-entity-1="ent0007" data-entity-2="ent0006" data-link-type="dependency" data-source-line="74" id="lnk13"><path codeLine="74" d="M455.7,675.38 C458.63,691.79 463.76,707.76 472,722.01 C484.78,744.12 500.8,736.39 521,752.01 C526.7,756.42 527.9151,757.2298 533.5651,762.1498" fill="none" id="Match-to-Player" style="stroke:#181818;stroke-width:1;"/><polygon fill="#181818" points="538.09,766.09,533.9295,757.1631,534.3193,762.8065,528.6759,763.1962,538.09,766.09" style="stroke:#181818;stroke-width:1;"/><text fill="#000000" font-family="sans-serif" font-size="13" lengthAdjust="spacing" textLength="55.6055" x="473" y="718.0769">h_player</text></g><!--link Match to Player--><g class="link" data-entity-1="ent0007" data-entity-2="ent0006" data-link-type="dependency" data-source-line="75" id="lnk14"><path codeLine="75" d="M530.89,675.09 C543.1,701.3 552.9665,722.4911 564.0065,746.1911" fill="none" id="Match-to-Player-1" style="stroke:#181818;stroke-width:1;"/><polygon fill="#181818" points="566.54,751.63,566.3656,741.7827,564.4287,747.0976,559.1138,745.1607,566.54,751.63" style="stroke:#181818;stroke-width:1;"/><text fill="#000000" font-family="sans-serif" font-size="13" lengthAdjust="spacing" textLength="55.6182" x="553" y="718.0769">g_player</text></g><!--link Match to Dice--><g class="link" data-entity-1="ent0007" data-entity-2="ent0004" data-link-type="dependency" data-source-line="76" id="lnk15"><path codeLine="76" d="M437.3,675.33 C435.67,685.35 434.21,695.32 433,705.01 C428.96,737.44 427.6947,768.8309 427.2447,794.6109" fill="none" id="Match-to-Dice" style="stroke:#181818;stroke-width:1;"/><polygon fill="#181818" points="427.14,800.61,431.2965,791.6812,427.2273,795.6108,423.2977,791.5416,427.14,800.61" style="stroke:#181818;stroke-width:1;"/></g><!--link Tournament to Player--><g class="link" data-entity-1="ent0010" data-entity-2="ent0006" data-link-type="dependency" data-source-line="78" id="lnk16"><path codeLine="78" d="M294.69,189.54 C397.15,210.56 531.26,256.39 601,355.86 C683.23,473.13 657.0496,643.963 630.5496,745.903" fill="none" id="Tournament-to-Player" style="stroke:#181818;stroke-width:1;"/><polygon fill="#181818" points="629.04,751.71,635.1757,744.0059,630.298,746.8708,627.433,741.9931,629.04,751.71" style="stroke:#181818;stroke-width:1;"/><text fill="#000000" font-family="sans-serif" font-size="13" lengthAdjust="spacing" textLength="47.6392" x="656" y="541.5069">players</text></g><!--link Tournament to Match--><g class="link" data-entity-1="ent0010" data-entity-2="ent0007" data-link-type="dependency" data-source-line="79" id="lnk17"><path codeLine="79" d="M267.81,301.29 C294.53,332.76 319.3078,361.9452 346.3278,393.7852" fill="none" id="Tournament-to-Match" style="stroke:#181818;stroke-width:1;"/><polygon fill="#181818" points="350.21,398.36,347.4365,388.9097,346.9748,394.5477,341.3368,394.086,350.21,398.36" style="stroke:#181818;stroke-width:1;"/><text fill="#000000" font-family="sans-serif" font-size="13" lengthAdjust="spacing" textLength="55.8848" x="305" y="343.9269">matches</text></g><!--link Tournament to TournamentType--><g class="link" data-entity-1="ent0010" data-entity-2="ent0009" data-link-type="dependency" data-source-line="80" id="lnk18"><path codeLine="80" d="M158,301.29 C158,369.95 158,443.55 158,490.16" fill="none" id="Tournament-to-TournamentType" style="stroke:#181818;stroke-width:1;"/><polygon fill="#181818" points="158,496.16,162,487.16,158,491.16,154,487.16,158,496.16" style="stroke:#181818;stroke-width:1;"/></g><?plantuml-src fLF9Rjim4BthAtXqO0ZegGS33P0YHI4WiOlKEHCCDPO8KwH0ZfouRVwzNBNOwQaNOZREc_Suj4UXUcPOHxXarjuX6l4o85HSgv_Y5v1FHT4pVcGDa8PrG7uNX80QEl8TL0qc-8HqJ48m3f3Czy8TeIUv5nnItTfeALSTUwCd9WVuylbcMVe3ZDKg5PTAyADoeD6ZJK1CpeimsCQUixYpaLfmmzUM7epkOjtg4aQoypXxQP5Xmk1wK4ZrWNgkDa6z2fLCoxM9bUinw2rgN8S0udnz0iEafA7u4lcH8MypC6txC4ZcD_TSLoLKGoV8qijMEosZTkbIxP1HP8tQdlPQA4ppDakNjiAYDkSuPqjdUEjcuNaxyvbu97rJbp7FJa0xpuiQi8D4kpe82VxX8ldtQOLG3yOd54wBj1zZ-tEV5-Lfzxozfq-xhzKs-DyUgiTgUxUlTjkbeFjbHySoyaYKfUOCXLRHc-0fEgp_KJeGpYlYMupFM0Conx_EQbmh6fOKcQeThCt1thY7kWu7TMTp_rFYz7NAyZP_pGqPh9imBNjP_hbD_wk8M-XBKt93nctu8DTSv_oVBegP-8iB-Gakyl7wXcJjBjBBHVWB?></g></svg>