<?plantuml 1.2026.2beta3?><svg xmlns="http://www.w3.org/2000/svg" xmlns:xlink="http://www.w3.org/1999/xlink" contentStyleType="text/css" data-diagram-type="ACTIVITY" height="1268px" preserveAspectRatio="none" style="width:596px;height:1268px;background:#FFFFFF;" version="1.1" viewBox="0 0 596 1268" width="596px" zoomAndPan="magnify"><title>Elimination algoritmus (pavouk)</title><defs/><g><g class="title" data-source-line="1"><text fill="#000000" font-family="sans-serif" font-size="14" font-weight="bold" lengthAdjust="spacing" textLength="254.2422" x="169.7441" y="32.9951">Elimination algoritmus (pavouk)</text></g><ellipse cx="339.5879" cy="57.2969" fill="#222222" rx="10" ry="10" style="stroke:#222222;stroke-width:1;"/><rect fill="#F1F1F1" height="33.9688" rx="12.5" ry="12.5" style="stroke:#181818;stroke-width:0.5;" width="263.2813" x="207.9473" y="87.2969"/><text fill="#000000" font-family="sans-serif" font-size="12" lengthAdjust="spacing" textLength="243.2813" x="217.9473" y="108.4355">Na&#269;ti seznam hr&#225;&#269;&#367; (remaining_players)</text><rect fill="#F1F1F1" height="33.9688" rx="12.5" ry="12.5" style="stroke:#181818;stroke-width:0.5;" width="113.3223" x="282.9268" y="141.2656"/><text fill="#000000" font-family="sans-serif" font-size="12" lengthAdjust="spacing" textLength="93.3223" x="292.9268" y="162.4043">round_num = 1</text><rect fill="#F1F1F1" height="33.9688" rx="12.5" ry="12.5" style="stroke:#181818;stroke-width:0.5;" width="224.6973" x="227.2393" y="250.9448"/><text fill="#000000" font-family="sans-serif" font-size="12" lengthAdjust="spacing" textLength="204.6973" x="237.2393" y="272.0835">Ur&#269;i n&#225;zev kola podle po&#269;tu hr&#225;&#269;&#367;</text><polygon fill="#F1F1F1" points="282.6436,304.9136,396.5322,304.9136,408.5322,316.9136,396.5322,328.9136,282.6436,328.9136,270.6436,316.9136,282.6436,304.9136" style="stroke:#181818;stroke-width:0.5;"/><text fill="#000000" font-family="sans-serif" font-size="11" lengthAdjust="spacing" textLength="113.8887" x="282.6436" y="320.7217">po&#269;et hr&#225;&#269;&#367; je lich&#253;?</text><text fill="#000000" font-family="sans-serif" font-size="11" lengthAdjust="spacing" textLength="20.4424" x="250.2012" y="314.3193">ano</text><text fill="#000000" font-family="sans-serif" font-size="11" lengthAdjust="spacing" textLength="13.7393" x="408.5322" y="314.3193">ne</text><rect fill="#F1F1F1" height="33.9688" rx="12.5" ry="12.5" style="stroke:#181818;stroke-width:0.5;" width="164.4043" x="122.7031" y="338.9136"/><text fill="#000000" font-family="sans-serif" font-size="12" lengthAdjust="spacing" textLength="144.4043" x="132.7031" y="360.0522">bye_player = prvn&#237; hr&#225;&#269;</text><rect fill="#F1F1F1" height="33.9688" rx="12.5" ry="12.5" style="stroke:#181818;stroke-width:0.5;" width="263.9375" x="72.9365" y="392.8823"/><text fill="#000000" font-family="sans-serif" font-size="12" lengthAdjust="spacing" textLength="243.9375" x="82.9365" y="414.021">P&#345;idej bye_player do next_round_players</text><rect fill="#F1F1F1" height="33.9688" rx="12.5" ry="12.5" style="stroke:#181818;stroke-width:0.5;" width="333.8105" x="38" y="446.8511"/><text fill="#000000" font-family="sans-serif" font-size="12" lengthAdjust="spacing" textLength="313.8105" x="48" y="467.9897">remaining_players = remaining_players bez prvn&#237;ho</text><rect fill="#F1F1F1" height="33.9688" rx="12.5" ry="12.5" style="stroke:#181818;stroke-width:0.5;" width="164.9199" x="391.8105" y="338.9136"/><text fill="#000000" font-family="sans-serif" font-size="12" lengthAdjust="spacing" textLength="144.9199" x="401.8105" y="360.0522">next_round_players = []</text><polygon fill="#F1F1F1" points="339.5879,486.8198,351.5879,498.8198,339.5879,510.8198,327.5879,498.8198,339.5879,486.8198" style="stroke:#181818;stroke-width:0.5;"/><rect fill="#F1F1F1" height="33.9688" rx="12.5" ry="12.5" style="stroke:#181818;stroke-width:0.5;" width="48.6523" x="315.2617" y="530.8198"/><text fill="#000000" font-family="sans-serif" font-size="12" lengthAdjust="spacing" textLength="28.6523" x="325.2617" y="551.9585">i = 0</text><rect fill="#F1F1F1" height="33.9688" rx="12.5" ry="12.5" style="stroke:#181818;stroke-width:0.5;" width="206.5684" x="236.3037" y="640.499"/><text fill="#000000" font-family="sans-serif" font-size="12" lengthAdjust="spacing" textLength="186.5684" x="246.3037" y="661.6377">player1 = remaining_players[i]</text><rect fill="#F1F1F1" height="33.9688" rx="12.5" ry="12.5" style="stroke:#181818;stroke-width:0.5;" width="224.2578" x="227.459" y="705.8037"/><text fill="#000000" font-family="sans-serif" font-size="12" lengthAdjust="spacing" textLength="204.2578" x="237.459" y="726.9424">player2 = remaining_players[i+1]</text><rect fill="#F1F1F1" height="33.9688" rx="12.5" ry="12.5" style="stroke:#181818;stroke-width:0.5;" width="185.375" x="246.9004" y="759.7725"/><text fill="#000000" font-family="sans-serif" font-size="12" lengthAdjust="spacing" textLength="165.375" x="256.9004" y="780.9111">Odehraj z&#225;pas (Match.play)</text><rect fill="#F1F1F1" height="33.9688" rx="12.5" ry="12.5" style="stroke:#181818;stroke-width:0.5;" width="169.5137" x="254.8311" y="813.7412"/><text fill="#000000" font-family="sans-serif" font-size="12" lengthAdjust="spacing" textLength="149.5137" x="264.8311" y="834.8799">Ur&#269;i v&#237;t&#283;ze a pora&#382;en&#233;ho</text><rect fill="#F1F1F1" height="33.9688" rx="12.5" ry="12.5" style="stroke:#181818;stroke-width:0.5;" width="234.3184" x="222.4287" y="867.71"/><text fill="#000000" font-family="sans-serif" font-size="12" lengthAdjust="spacing" textLength="214.3184" x="232.4287" y="888.8486">P&#345;idej v&#237;t&#283;ze do next_round_players</text><rect fill="#F1F1F1" height="33.9688" rx="12.5" ry="12.5" style="stroke:#181818;stroke-width:0.5;" width="204.4883" x="237.3438" y="921.6787"/><text fill="#000000" font-family="sans-serif" font-size="12" lengthAdjust="spacing" textLength="184.4883" x="247.3438" y="942.8174">Zapi&#353; detailn&#237; v&#253;sledek z&#225;pasu</text><rect fill="#F1F1F1" height="33.9688" rx="12.5" ry="12.5" style="stroke:#181818;stroke-width:0.5;" width="69.6699" x="304.7529" y="975.6475"/><text fill="#000000" font-family="sans-serif" font-size="12" lengthAdjust="spacing" textLength="49.6699" x="314.7529" y="996.7861">i = i + 2</text><polygon fill="#F1F1F1" points="262.1152,584.7886,417.0605,584.7886,429.0605,596.7886,417.0605,608.7886,262.1152,608.7886,250.1152,596.7886,262.1152,584.7886" style="stroke:#181818;stroke-width:0.5;"/><text fill="#000000" font-family="sans-serif" font-size="11" lengthAdjust="spacing" textLength="20.4424" x="343.5879" y="618.999">ano</text><text fill="#000000" font-family="sans-serif" font-size="11" lengthAdjust="spacing" textLength="154.9453" x="262.1152" y="600.5967">i &lt; po&#269;et zb&#253;vaj&#237;c&#237;ch hr&#225;&#269;&#367;?</text><text fill="#000000" font-family="sans-serif" font-size="11" lengthAdjust="spacing" textLength="13.7393" x="236.376" y="594.1943">ne</text><rect fill="#F1F1F1" height="33.9688" rx="12.5" ry="12.5" style="stroke:#181818;stroke-width:0.5;" width="266.3867" x="206.3945" y="1051.6162"/><text fill="#000000" font-family="sans-serif" font-size="12" lengthAdjust="spacing" textLength="246.3867" x="216.3945" y="1072.7549">remaining_players = next_round_players</text><rect fill="#F1F1F1" height="33.9688" rx="12.5" ry="12.5" style="stroke:#181818;stroke-width:0.5;" width="199.0098" x="240.083" y="1105.585"/><text fill="#000000" font-family="sans-serif" font-size="12" lengthAdjust="spacing" textLength="179.0098" x="250.083" y="1126.7236">round_num = round_num + 1</text><polygon fill="#F1F1F1" points="292.2686,195.2344,386.9072,195.2344,398.9072,207.2344,386.9072,219.2344,292.2686,219.2344,280.2686,207.2344,292.2686,195.2344" style="stroke:#181818;stroke-width:0.5;"/><text fill="#000000" font-family="sans-serif" font-size="11" lengthAdjust="spacing" textLength="20.4424" x="343.5879" y="229.4448">ano</text><text fill="#000000" font-family="sans-serif" font-size="11" lengthAdjust="spacing" textLength="94.6387" x="292.2686" y="211.0425">po&#269;et hr&#225;&#269;&#367; &gt; 1?</text><text fill="#000000" font-family="sans-serif" font-size="11" lengthAdjust="spacing" textLength="13.7393" x="266.5293" y="204.6401">ne</text><rect fill="#F1F1F1" height="33.9688" rx="12.5" ry="12.5" style="stroke:#181818;stroke-width:0.5;" width="206.1875" x="236.4941" y="1181.5537"/><text fill="#000000" font-family="sans-serif" font-size="12" lengthAdjust="spacing" textLength="186.1875" x="246.4941" y="1202.6924">winner = remaining_players[0]</text><ellipse cx="339.5879" cy="1246.5225" fill="none" rx="11" ry="11" style="stroke:#222222;stroke-width:1;"/><ellipse cx="339.5879" cy="1246.5225" fill="#222222" rx="6" ry="6" style="stroke:#222222;stroke-width:1;"/><line style="stroke:#181818;stroke-width:1;" x1="339.5879" x2="339.5879" y1="67.2969" y2="87.2969"/><polygon fill="#181818" points="335.5879,77.2969,339.5879,87.2969,343.5879,77.2969,339.5879,81.2969" style="stroke:#181818;stroke-width:1;"/><line style="stroke:#181818;stroke-width:1;" x1="339.5879" x2="339.5879" y1="121.2656" y2="141.2656"/><polygon fill="#181818" points="335.5879,131.2656,339.5879,141.2656,343.5879,131.2656,339.5879,135.2656" style="stroke:#181818;stroke-width:1;"/><line style="stroke:#181818;stroke-width:1;" x1="204.9053" x2="204.9053" y1="372.8823" y2="392.8823"/><polygon fill="#181818" points="200.9053,382.8823,204.9053,392.8823,208.9053,382.8823,204.9053,386.8823" style="stroke:#181818;stroke-width:1;"/><line style="stroke:#181818;stroke-width:1;" x1="204.9053" x2="204.9053" y1="426.8511" y2="446.8511"/><polygon fill="#181818" points="200.9053,436.8511,204.9053,446.8511,208.9053,436.8511,204.9053,440.8511" style="stroke:#181818;stroke-width:1;"/><line style="stroke:#181818;stroke-width:1;" x1="270.6436" x2="204.9053" y1="316.9136" y2="316.9136"/><line style="stroke:#181818;stroke-width:1;" x1="204.9053" x2="204.9053" y1="316.9136" y2="338.9136"/><polygon fill="#181818" points="200.9053,328.9136,204.9053,338.9136,208.9053,328.9136,204.9053,332.9136" style="stroke:#181818;stroke-width:1;"/><line style="stroke:#181818;stroke-width:1;" x1="408.5322" x2="474.2705" y1="316.9136" y2="316.9136"/><line style="stroke:#181818;stroke-width:1;" x1="474.2705" x2="474.2705" y1="316.9136" y2="338.9136"/><polygon fill="#181818" points="470.2705,328.9136,474.2705,338.9136,478.2705,328.9136,474.2705,332.9136" style="stroke:#181818;stroke-width:1;"/><line style="stroke:#181818;stroke-width:1;" x1="204.9053" x2="204.9053" y1="480.8198" y2="498.8198"/><line style="stroke:#181818;stroke-width:1;" x1="204.9053" x2="327.5879" y1="498.8198" y2="498.8198"/><polygon fill="#181818" points="317.5879,494.8198,327.5879,498.8198,317.5879,502.8198,321.5879,498.8198" style="stroke:#181818;stroke-width:1;"/><line style="stroke:#181818;stroke-width:1;" x1="474.2705" x2="474.2705" y1="372.8823" y2="498.8198"/><line style="stroke:#181818;stroke-width:1;" x1="474.2705" x2="351.5879" y1="498.8198" y2="498.8198"/><polygon fill="#181818" points="361.5879,494.8198,351.5879,498.8198,361.5879,502.8198,357.5879,498.8198" style="stroke:#181818;stroke-width:1;"/><line style="stroke:#181818;stroke-width:1;" x1="339.5879" x2="339.5879" y1="284.9136" y2="304.9136"/><polygon fill="#181818" points="335.5879,294.9136,339.5879,304.9136,343.5879,294.9136,339.5879,298.9136" style="stroke:#181818;stroke-width:1;"/><line style="stroke:#181818;stroke-width:1;" x1="339.5879" x2="339.5879" y1="510.8198" y2="530.8198"/><polygon fill="#181818" points="335.5879,520.8198,339.5879,530.8198,343.5879,520.8198,339.5879,524.8198" style="stroke:#181818;stroke-width:1;"/><line style="stroke:#181818;stroke-width:1;" x1="339.5879" x2="339.5879" y1="674.4678" y2="705.8037"/><polygon fill="#181818" points="335.5879,695.8037,339.5879,705.8037,343.5879,695.8037,339.5879,699.8037" style="stroke:#181818;stroke-width:1;"/><line style="stroke:#181818;stroke-width:1;" x1="339.5879" x2="339.5879" y1="739.7725" y2="759.7725"/><polygon fill="#181818" points="335.5879,749.7725,339.5879,759.7725,343.5879,749.7725,339.5879,753.7725" style="stroke:#181818;stroke-width:1;"/><line style="stroke:#181818;stroke-width:1;" x1="339.5879" x2="339.5879" y1="793.7412" y2="813.7412"/><polygon fill="#181818" points="335.5879,803.7412,339.5879,813.7412,343.5879,803.7412,339.5879,807.7412" style="stroke:#181818;stroke-width:1;"/><line style="stroke:#181818;stroke-width:1;" x1="339.5879" x2="339.5879" y1="847.71" y2="867.71"/><polygon fill="#181818" points="335.5879,857.71,339.5879,867.71,343.5879,857.71,339.5879,861.71" style="stroke:#181818;stroke-width:1;"/><line style="stroke:#181818;stroke-width:1;" x1="339.5879" x2="339.5879" y1="901.6787" y2="921.6787"/><polygon fill="#181818" points="335.5879,911.6787,339.5879,921.6787,343.5879,911.6787,339.5879,915.6787" style="stroke:#181818;stroke-width:1;"/><line style="stroke:#181818;stroke-width:1;" x1="339.5879" x2="339.5879" y1="955.6475" y2="975.6475"/><polygon fill="#181818" points="335.5879,965.6475,339.5879,975.6475,343.5879,965.6475,339.5879,969.6475" style="stroke:#181818;stroke-width:1;"/><line style="stroke:#181818;stroke-width:1;" x1="339.5879" x2="339.5879" y1="608.7886" y2="640.499"/><polygon fill="#181818" points="335.5879,630.499,339.5879,640.499,343.5879,630.499,339.5879,634.499" style="stroke:#181818;stroke-width:1;"/><line style="stroke:#181818;stroke-width:1;" x1="339.5879" x2="339.5879" y1="1009.6162" y2="1019.6162"/><line style="stroke:#181818;stroke-width:1;" x1="339.5879" x2="468.7471" y1="1019.6162" y2="1019.6162"/><polygon fill="#181818" points="464.7471,822.3232,468.7471,812.3232,472.7471,822.3232,468.7471,818.3232" style="stroke:#181818;stroke-width:1;"/><line style="stroke:#181818;stroke-width:1;" x1="468.7471" x2="468.7471" y1="596.7886" y2="1019.6162"/><line style="stroke:#181818;stroke-width:1;" x1="468.7471" x2="429.0605" y1="596.7886" y2="596.7886"/><polygon fill="#181818" points="439.0605,592.7886,429.0605,596.7886,439.0605,600.7886,435.0605,596.7886" style="stroke:#181818;stroke-width:1;"/><line style="stroke:#181818;stroke-width:1;" x1="250.1152" x2="210.4287" y1="596.7886" y2="596.7886"/><polygon fill="#181818" points="206.4287,808.3232,210.4287,818.3232,214.4287,808.3232,210.4287,812.3232" style="stroke:#181818;stroke-width:1;"/><line style="stroke:#181818;stroke-width:1;" x1="210.4287" x2="210.4287" y1="596.7886" y2="1031.6162"/><line style="stroke:#181818;stroke-width:1;" x1="210.4287" x2="339.5879" y1="1031.6162" y2="1031.6162"/><line style="stroke:#181818;stroke-width:1;" x1="339.5879" x2="339.5879" y1="1031.6162" y2="1051.6162"/><polygon fill="#181818" points="335.5879,1041.6162,339.5879,1051.6162,343.5879,1041.6162,339.5879,1045.6162" style="stroke:#181818;stroke-width:1;"/><line style="stroke:#181818;stroke-width:1;" x1="339.5879" x2="339.5879" y1="564.7886" y2="584.7886"/><polygon fill="#181818" points="335.5879,574.7886,339.5879,584.7886,343.5879,574.7886,339.5879,578.7886" style="stroke:#181818;stroke-width:1;"/><line style="stroke:#181818;stroke-width:1;" x1="339.5879" x2="339.5879" y1="1085.585" y2="1105.585"/><polygon fill="#181818" points="335.5879,1095.585,339.5879,1105.585,343.5879,1095.585,339.5879,1099.585" style="stroke:#181818;stroke-width:1;"/><line style="stroke:#181818;stroke-width:1;" x1="339.5879" x2="339.5879" y1="219.2344" y2="250.9448"/><polygon fill="#181818" points="335.5879,240.9448,339.5879,250.9448,343.5879,240.9448,339.5879,244.9448" style="stroke:#181818;stroke-width:1;"/><line style="stroke:#181818;stroke-width:1;" x1="339.5879" x2="339.5879" y1="1139.5537" y2="1149.5537"/><line style="stroke:#181818;stroke-width:1;" x1="339.5879" x2="570.7305" y1="1149.5537" y2="1149.5537"/><polygon fill="#181818" points="566.7305,698.4678,570.7305,688.4678,574.7305,698.4678,570.7305,694.4678" style="stroke:#181818;stroke-width:1;"/><line style="stroke:#181818;stroke-width:1;" x1="570.7305" x2="570.7305" y1="207.2344" y2="1149.5537"/><line style="stroke:#181818;stroke-width:1;" x1="570.7305" x2="398.9072" y1="207.2344" y2="207.2344"/><polygon fill="#181818" points="408.9072,203.2344,398.9072,207.2344,408.9072,211.2344,404.9072,207.2344" style="stroke:#181818;stroke-width:1;"/><line style="stroke:#181818;stroke-width:1;" x1="280.2686" x2="24" y1="207.2344" y2="207.2344"/><polygon fill="#181818" points="20,684.4678,24,694.4678,28,684.4678,24,688.4678" style="stroke:#181818;stroke-width:1;"/><line style="stroke:#181818;stroke-width:1;" x1="24" x2="24" y1="207.2344" y2="1161.5537"/><line style="stroke:#181818;stroke-width:1;" x1="24" x2="339.5879" y1="1161.5537" y2="1161.5537"/><line style="stroke:#181818;stroke-width:1;" x1="339.5879" x2="339.5879" y1="1161.5537" y2="1181.5537"/><polygon fill="#181818" points="335.5879,1171.5537,339.5879,1181.5537,343.5879,1171.5537,339.5879,1175.5537" style="stroke:#181818;stroke-width:1;"/><line style="stroke:#181818;stroke-width:1;" x1="339.5879" x2="339.5879" y1="175.2344" y2="195.2344"/><polygon fill="#181818" points="335.5879,185.2344,339.5879,195.2344,343.5879,185.2344,339.5879,189.2344" style="stroke:#181818;stroke-width:1;"/><line style="stroke:#181818;stroke-width:1;" x1="339.5879" x2="339.5879" y1="1215.5225" y2="1235.5225"/><polygon fill="#181818" points="335.5879,1225.5225,339.5879,1235.5225,343.5879,1225.5225,339.5879,1229.5225" style="stroke:#181818;stroke-width:1;"/><?plantuml-src VPA_Rjim4CPtFiMD5WmKSKOhRQUC_RDaIH0Oj7M9pgQE0aKfYTx13r1qyjZ1w1Eu2-NtAXcnZbCv0JG8nFTzT_UxisGLmgMYWbXQqWnItMj3jgWh69MoqVKg4QAoqbWn_IgxjIMei6LPG6xSfbllVyF8O269YUzdfP9FQAea5LEZQyvcN1Vm4IQf40yv-LAZKdThj2_cJp3vd03vQf9r8W2cLwPR4x3RjDZ0IYi9fSwyDJXjVN2cNajtmy0bWg95xdO-rkR8Xs0VFN_2sA9lgZGDksqqfhtW-_u7PRY48s6cWV7Hplfvue1HFXZSnmxVvjZ6OhaEHbIL1y4Ocngc-vIRssSbPtGd0XJoRsVXAM8ak80uUJjtkqOktNRXl_m0uZLL7z67JqwrU4EtwR7e_BHeFFad-vPXRkGIMhSffQ_oHTf5_Y48awZejzYuhUr-jWXXYKRk_o2xNps58ze7rNkihsL9-mraQ2MfiBZ6xIg56QvY5tKK1bG4OpYF12Enm5kyiRFJHL-TyCl_E9ppVxdJ1s9-lgeXjZCFhRAw_0i0?></g></svg>