<?plantuml 1.2026.2beta3?><svg xmlns="http://www.w3.org/2000/svg" xmlns:xlink="http://www.w3.org/1999/xlink" contentStyleType="text/css" data-diagram-type="ACTIVITY" height="1241px" preserveAspectRatio="none" style="width:384px;height:1241px;background:#FFFFFF;" version="1.1" viewBox="0 0 384 1241" width="384px" zoomAndPan="magnify"><title>Round-robin algoritmus (generov&#225;n&#237; kol)</title><defs/><g><g class="title" data-source-line="1"><text fill="#000000" font-family="sans-serif" font-size="14" font-weight="bold" lengthAdjust="spacing" textLength="322.6289" x="29.5039" y="32.9951">Round-robin algoritmus (generov&#225;n&#237; kol)</text></g><ellipse cx="178.3184" cy="57.2969" fill="#222222" rx="10" ry="10" style="stroke:#222222;stroke-width:1;"/><rect fill="#F1F1F1" height="33.9688" rx="12.5" ry="12.5" style="stroke:#181818;stroke-width:0.5;" width="196.4258" x="80.1055" y="87.2969"/><text fill="#000000" font-family="sans-serif" font-size="12" lengthAdjust="spacing" textLength="176.4258" x="90.1055" y="108.4355">Na&#269;ti seznam hr&#225;&#269;&#367; (players)</text><rect fill="#F1F1F1" height="33.9688" rx="12.5" ry="12.5" style="stroke:#181818;stroke-width:0.5;" width="116.8438" x="119.8965" y="141.2656"/><text fill="#000000" font-family="sans-serif" font-size="12" lengthAdjust="spacing" textLength="96.8438" x="129.8965" y="162.4043">n = po&#269;et hr&#225;&#269;&#367;</text><rect fill="#F1F1F1" height="33.9688" rx="12.5" ry="12.5" style="stroke:#181818;stroke-width:0.5;" width="125.2813" x="115.6777" y="243.6367"/><text fill="#000000" font-family="sans-serif" font-size="12" lengthAdjust="spacing" textLength="105.2813" x="125.6777" y="264.7754">P&#345;idej BYE (None)</text><rect fill="#F1F1F1" height="33.9688" rx="12.5" ry="12.5" style="stroke:#181818;stroke-width:0.5;" width="78.2129" x="139.2119" y="312.6055"/><text fill="#000000" font-family="sans-serif" font-size="12" lengthAdjust="spacing" textLength="58.2129" x="149.2119" y="333.7441">n = n + 1</text><polygon fill="#F1F1F1" points="150.5552,195.2344,206.0815,195.2344,218.0815,207.2344,206.0815,219.2344,150.5552,219.2344,138.5552,207.2344,150.5552,195.2344" style="stroke:#181818;stroke-width:0.5;"/><text fill="#000000" font-family="sans-serif" font-size="11" lengthAdjust="spacing" textLength="20.4424" x="182.3184" y="229.4448">ano</text><text fill="#000000" font-family="sans-serif" font-size="11" lengthAdjust="spacing" textLength="55.5264" x="150.5552" y="211.0425">n je lich&#233;?</text><polygon fill="#F1F1F1" points="178.3184,366.5742,190.3184,378.5742,178.3184,390.5742,166.3184,378.5742,178.3184,366.5742" style="stroke:#181818;stroke-width:0.5;"/><rect fill="#F1F1F1" height="33.9688" rx="12.5" ry="12.5" style="stroke:#181818;stroke-width:0.5;" width="88.4023" x="134.1172" y="410.5742"/><text fill="#000000" font-family="sans-serif" font-size="12" lengthAdjust="spacing" textLength="68.4023" x="144.1172" y="431.7129">rounds = []</text><rect fill="#F1F1F1" height="33.9688" rx="12.5" ry="12.5" style="stroke:#181818;stroke-width:0.5;" width="139.7363" x="108.4502" y="508.543"/><text fill="#000000" font-family="sans-serif" font-size="12" lengthAdjust="spacing" textLength="119.7363" x="118.4502" y="529.6816">round_matches = []</text><rect fill="#F1F1F1" height="33.9688" rx="12.5" ry="12.5" style="stroke:#181818;stroke-width:0.5;" width="48.6523" x="153.9922" y="562.5117"/><text fill="#000000" font-family="sans-serif" font-size="12" lengthAdjust="spacing" textLength="28.6523" x="163.9922" y="583.6504">i = 0</text><rect fill="#F1F1F1" height="33.9688" rx="12.5" ry="12.5" style="stroke:#181818;stroke-width:0.5;" width="139.7129" x="108.4619" y="672.1909"/><text fill="#000000" font-family="sans-serif" font-size="12" lengthAdjust="spacing" textLength="119.7129" x="118.4619" y="693.3296">player1 = players[i]</text><rect fill="#F1F1F1" height="33.9688" rx="12.5" ry="12.5" style="stroke:#181818;stroke-width:0.5;" width="163.6133" x="96.5117" y="726.1597"/><text fill="#000000" font-family="sans-serif" font-size="12" lengthAdjust="spacing" textLength="143.6133" x="106.5117" y="747.2983">player2 = players[n-1-i]</text><rect fill="#F1F1F1" height="33.9688" rx="12.5" ry="12.5" style="stroke:#181818;stroke-width:0.5;" width="280.6367" x="38" y="828.5308"/><text fill="#000000" font-family="sans-serif" font-size="12" lengthAdjust="spacing" textLength="260.6367" x="48" y="849.6694">P&#345;idej (player1, player2) do round_matches</text><polygon fill="#F1F1F1" points="72.4299,780.1284,284.2068,780.1284,296.2068,792.1284,284.2068,804.1284,72.4299,804.1284,60.4299,792.1284,72.4299,780.1284" style="stroke:#181818;stroke-width:0.5;"/><text fill="#000000" font-family="sans-serif" font-size="11" lengthAdjust="spacing" textLength="20.4424" x="182.3184" y="814.3389">ano</text><text fill="#000000" font-family="sans-serif" font-size="11" lengthAdjust="spacing" textLength="211.7769" x="72.4299" y="795.9365">player1 != None &amp;&amp; player2 != None?</text><polygon fill="#F1F1F1" points="178.3184,882.4995,190.3184,894.4995,178.3184,906.4995,166.3184,894.4995,178.3184,882.4995" style="stroke:#181818;stroke-width:0.5;"/><rect fill="#F1F1F1" height="33.9688" rx="12.5" ry="12.5" style="stroke:#181818;stroke-width:0.5;" width="69.6699" x="143.4834" y="926.4995"/><text fill="#000000" font-family="sans-serif" font-size="12" lengthAdjust="spacing" textLength="49.6699" x="153.4834" y="947.6382">i = i + 1</text><polygon fill="#F1F1F1" points="156.928,616.4805,199.7087,616.4805,211.7087,628.4805,199.7087,640.4805,156.928,640.4805,144.928,628.4805,156.928,616.4805" style="stroke:#181818;stroke-width:0.5;"/><text fill="#000000" font-family="sans-serif" font-size="11" lengthAdjust="spacing" textLength="20.4424" x="182.3184" y="650.6909">ano</text><text fill="#000000" font-family="sans-serif" font-size="11" lengthAdjust="spacing" textLength="42.7808" x="156.928" y="632.2886">i &lt; n/2?</text><text fill="#000000" font-family="sans-serif" font-size="11" lengthAdjust="spacing" textLength="13.7393" x="131.1887" y="625.8862">ne</text><rect fill="#F1F1F1" height="33.9688" rx="12.5" ry="12.5" style="stroke:#181818;stroke-width:0.5;" width="214.2852" x="71.1758" y="1002.4683"/><text fill="#000000" font-family="sans-serif" font-size="12" lengthAdjust="spacing" textLength="194.2852" x="81.1758" y="1023.6069">P&#345;idej round_matches do rounds</text><rect fill="#F1F1F1" height="33.9688" rx="12.5" ry="12.5" style="stroke:#181818;stroke-width:0.5;" width="246.1895" x="55.2236" y="1056.437"/><text fill="#000000" font-family="sans-serif" font-size="12" lengthAdjust="spacing" textLength="226.1895" x="65.2236" y="1077.5757">Rotuj hr&#225;&#269;e (fixn&#237; prvn&#237;, ostatn&#237; rotuj&#237;)</text><polygon fill="#F1F1F1" points="178.3184,464.543,190.3184,476.543,178.3184,488.543,166.3184,476.543,178.3184,464.543" style="stroke:#181818;stroke-width:0.5;"/><polygon fill="#F1F1F1" points="127.0728,1110.4058,229.564,1110.4058,241.564,1122.4058,229.564,1134.4058,127.0728,1134.4058,115.0728,1122.4058,127.0728,1110.4058" style="stroke:#181818;stroke-width:0.5;"/><text fill="#000000" font-family="sans-serif" font-size="11" lengthAdjust="spacing" textLength="102.4912" x="127.0728" y="1126.2139">vytvo&#345;eno n-1 kol?</text><text fill="#000000" font-family="sans-serif" font-size="11" lengthAdjust="spacing" textLength="13.7393" x="241.564" y="1119.8115">ne</text><rect fill="#F1F1F1" height="33.9688" rx="12.5" ry="12.5" style="stroke:#181818;stroke-width:0.5;" width="106.6602" x="124.9883" y="1154.4058"/><text fill="#000000" font-family="sans-serif" font-size="12" lengthAdjust="spacing" textLength="86.6602" x="134.9883" y="1175.5444">V&#253;stup rounds</text><ellipse cx="178.3184" cy="1219.3745" fill="none" rx="11" ry="11" style="stroke:#222222;stroke-width:1;"/><ellipse cx="178.3184" cy="1219.3745" fill="#222222" rx="6" ry="6" style="stroke:#222222;stroke-width:1;"/><line style="stroke:#181818;stroke-width:1;" x1="178.3184" x2="178.3184" y1="67.2969" y2="87.2969"/><polygon fill="#181818" points="174.3184,77.2969,178.3184,87.2969,182.3184,77.2969,178.3184,81.2969" style="stroke:#181818;stroke-width:1;"/><line style="stroke:#181818;stroke-width:1;" x1="178.3184" x2="178.3184" y1="121.2656" y2="141.2656"/><polygon fill="#181818" points="174.3184,131.2656,178.3184,141.2656,182.3184,131.2656,178.3184,135.2656" style="stroke:#181818;stroke-width:1;"/><line style="stroke:#181818;stroke-width:1;" x1="178.3184" x2="178.3184" y1="277.6055" y2="312.6055"/><polygon fill="#181818" points="174.3184,302.6055,178.3184,312.6055,182.3184,302.6055,178.3184,306.6055" style="stroke:#181818;stroke-width:1;"/><line style="stroke:#181818;stroke-width:1;" x1="178.3184" x2="178.3184" y1="219.2344" y2="243.6367"/><polygon fill="#181818" points="174.3184,233.6367,178.3184,243.6367,182.3184,233.6367,178.3184,237.6367" style="stroke:#181818;stroke-width:1;"/><line style="stroke:#181818;stroke-width:1;" x1="218.0815" x2="250.959" y1="207.2344" y2="207.2344"/><polygon fill="#181818" points="246.959,285.1055,250.959,295.1055,254.959,285.1055,250.959,289.1055" style="stroke:#181818;stroke-width:1;"/><line style="stroke:#181818;stroke-width:1;" x1="250.959" x2="250.959" y1="207.2344" y2="378.5742"/><line style="stroke:#181818;stroke-width:1;" x1="250.959" x2="190.3184" y1="378.5742" y2="378.5742"/><polygon fill="#181818" points="200.3184,374.5742,190.3184,378.5742,200.3184,382.5742,196.3184,378.5742" style="stroke:#181818;stroke-width:1;"/><line style="stroke:#181818;stroke-width:1;" x1="178.3184" x2="178.3184" y1="346.5742" y2="366.5742"/><polygon fill="#181818" points="174.3184,356.5742,178.3184,366.5742,182.3184,356.5742,178.3184,360.5742" style="stroke:#181818;stroke-width:1;"/><line style="stroke:#181818;stroke-width:1;" x1="178.3184" x2="178.3184" y1="175.2344" y2="195.2344"/><polygon fill="#181818" points="174.3184,185.2344,178.3184,195.2344,182.3184,185.2344,178.3184,189.2344" style="stroke:#181818;stroke-width:1;"/><line style="stroke:#181818;stroke-width:1;" x1="178.3184" x2="178.3184" y1="390.5742" y2="410.5742"/><polygon fill="#181818" points="174.3184,400.5742,178.3184,410.5742,182.3184,400.5742,178.3184,404.5742" style="stroke:#181818;stroke-width:1;"/><line style="stroke:#181818;stroke-width:1;" x1="178.3184" x2="178.3184" y1="542.5117" y2="562.5117"/><polygon fill="#181818" points="174.3184,552.5117,178.3184,562.5117,182.3184,552.5117,178.3184,556.5117" style="stroke:#181818;stroke-width:1;"/><line style="stroke:#181818;stroke-width:1;" x1="178.3184" x2="178.3184" y1="706.1597" y2="726.1597"/><polygon fill="#181818" points="174.3184,716.1597,178.3184,726.1597,182.3184,716.1597,178.3184,720.1597" style="stroke:#181818;stroke-width:1;"/><line style="stroke:#181818;stroke-width:1;" x1="178.3184" x2="178.3184" y1="804.1284" y2="828.5308"/><polygon fill="#181818" points="174.3184,818.5308,178.3184,828.5308,182.3184,818.5308,178.3184,822.5308" style="stroke:#181818;stroke-width:1;"/><line style="stroke:#181818;stroke-width:1;" x1="296.2068" x2="328.6367" y1="792.1284" y2="792.1284"/><polygon fill="#181818" points="324.6367,835.5151,328.6367,845.5151,332.6367,835.5151,328.6367,839.5151" style="stroke:#181818;stroke-width:1;"/><line style="stroke:#181818;stroke-width:1;" x1="328.6367" x2="328.6367" y1="792.1284" y2="894.4995"/><line style="stroke:#181818;stroke-width:1;" x1="328.6367" x2="190.3184" y1="894.4995" y2="894.4995"/><polygon fill="#181818" points="200.3184,890.4995,190.3184,894.4995,200.3184,898.4995,196.3184,894.4995" style="stroke:#181818;stroke-width:1;"/><line style="stroke:#181818;stroke-width:1;" x1="178.3184" x2="178.3184" y1="862.4995" y2="882.4995"/><polygon fill="#181818" points="174.3184,872.4995,178.3184,882.4995,182.3184,872.4995,178.3184,876.4995" style="stroke:#181818;stroke-width:1;"/><line style="stroke:#181818;stroke-width:1;" x1="178.3184" x2="178.3184" y1="760.1284" y2="780.1284"/><polygon fill="#181818" points="174.3184,770.1284,178.3184,780.1284,182.3184,770.1284,178.3184,774.1284" style="stroke:#181818;stroke-width:1;"/><line style="stroke:#181818;stroke-width:1;" x1="178.3184" x2="178.3184" y1="906.4995" y2="926.4995"/><polygon fill="#181818" points="174.3184,916.4995,178.3184,926.4995,182.3184,916.4995,178.3184,920.4995" style="stroke:#181818;stroke-width:1;"/><line style="stroke:#181818;stroke-width:1;" x1="178.3184" x2="178.3184" y1="640.4805" y2="672.1909"/><polygon fill="#181818" points="174.3184,662.1909,178.3184,672.1909,182.3184,662.1909,178.3184,666.1909" style="stroke:#181818;stroke-width:1;"/><line style="stroke:#181818;stroke-width:1;" x1="178.3184" x2="178.3184" y1="960.4683" y2="970.4683"/><line style="stroke:#181818;stroke-width:1;" x1="178.3184" x2="346.6367" y1="970.4683" y2="970.4683"/><polygon fill="#181818" points="342.6367,802.6284,346.6367,792.6284,350.6367,802.6284,346.6367,798.6284" style="stroke:#181818;stroke-width:1;"/><line style="stroke:#181818;stroke-width:1;" x1="346.6367" x2="346.6367" y1="628.4805" y2="970.4683"/><line style="stroke:#181818;stroke-width:1;" x1="346.6367" x2="211.7087" y1="628.4805" y2="628.4805"/><polygon fill="#181818" points="221.7087,624.4805,211.7087,628.4805,221.7087,632.4805,217.7087,628.4805" style="stroke:#181818;stroke-width:1;"/><line style="stroke:#181818;stroke-width:1;" x1="144.928" x2="24" y1="628.4805" y2="628.4805"/><polygon fill="#181818" points="20,788.6284,24,798.6284,28,788.6284,24,792.6284" style="stroke:#181818;stroke-width:1;"/><line style="stroke:#181818;stroke-width:1;" x1="24" x2="24" y1="628.4805" y2="982.4683"/><line style="stroke:#181818;stroke-width:1;" x1="24" x2="178.3184" y1="982.4683" y2="982.4683"/><line style="stroke:#181818;stroke-width:1;" x1="178.3184" x2="178.3184" y1="982.4683" y2="1002.4683"/><polygon fill="#181818" points="174.3184,992.4683,178.3184,1002.4683,182.3184,992.4683,178.3184,996.4683" style="stroke:#181818;stroke-width:1;"/><line style="stroke:#181818;stroke-width:1;" x1="178.3184" x2="178.3184" y1="596.4805" y2="616.4805"/><polygon fill="#181818" points="174.3184,606.4805,178.3184,616.4805,182.3184,606.4805,178.3184,610.4805" style="stroke:#181818;stroke-width:1;"/><line style="stroke:#181818;stroke-width:1;" x1="178.3184" x2="178.3184" y1="1036.437" y2="1056.437"/><polygon fill="#181818" points="174.3184,1046.437,178.3184,1056.437,182.3184,1046.437,178.3184,1050.437" style="stroke:#181818;stroke-width:1;"/><line style="stroke:#181818;stroke-width:1;" x1="178.3184" x2="178.3184" y1="488.543" y2="508.543"/><polygon fill="#181818" points="174.3184,498.543,178.3184,508.543,182.3184,498.543,178.3184,502.543" style="stroke:#181818;stroke-width:1;"/><line style="stroke:#181818;stroke-width:1;" x1="241.564" x2="358.6367" y1="1122.4058" y2="1122.4058"/><polygon fill="#181818" points="354.6367,802.6284,358.6367,792.6284,362.6367,802.6284,358.6367,798.6284" style="stroke:#181818;stroke-width:1;"/><line style="stroke:#181818;stroke-width:1;" x1="358.6367" x2="358.6367" y1="476.543" y2="1122.4058"/><line style="stroke:#181818;stroke-width:1;" x1="358.6367" x2="190.3184" y1="476.543" y2="476.543"/><polygon fill="#181818" points="200.3184,472.543,190.3184,476.543,200.3184,480.543,196.3184,476.543" style="stroke:#181818;stroke-width:1;"/><line style="stroke:#181818;stroke-width:1;" x1="178.3184" x2="178.3184" y1="1090.4058" y2="1110.4058"/><polygon fill="#181818" points="174.3184,1100.4058,178.3184,1110.4058,182.3184,1100.4058,178.3184,1104.4058" style="stroke:#181818;stroke-width:1;"/><line style="stroke:#181818;stroke-width:1;" x1="178.3184" x2="178.3184" y1="444.543" y2="464.543"/><polygon fill="#181818" points="174.3184,454.543,178.3184,464.543,182.3184,454.543,178.3184,458.543" style="stroke:#181818;stroke-width:1;"/><line style="stroke:#181818;stroke-width:1;" x1="178.3184" x2="178.3184" y1="1134.4058" y2="1154.4058"/><polygon fill="#181818" points="174.3184,1144.4058,178.3184,1154.4058,182.3184,1144.4058,178.3184,1148.4058" style="stroke:#181818;stroke-width:1;"/><line style="stroke:#181818;stroke-width:1;" x1="178.3184" x2="178.3184" y1="1188.3745" y2="1208.3745"/><polygon fill="#181818" points="174.3184,1198.3745,178.3184,1208.3745,182.3184,1198.3745,178.3184,1202.3745" style="stroke:#181818;stroke-width:1;"/><?plantuml-src NLB1Ji904BtlLumNqaQ8mh6Lc9Xu9OQ3YI76h7IXYsMssPrMyH_u08uSFH2_m5FXlznjkuruwkRDl3VptfGaPGAcgi1aeDMhHE3PKcb9wy90i1Gej2ghFLO7U5DPo9WXheb54txSaWGZFf6l8TNL_hWzVKEGPtmZj0bZ5Y6C8LV7hQ2k7ZEvW01X9I2JyxJwkWs1Ke4GS5GX0uWUJZkPY1NSFTr3C54eh9A5dHR29GnZ9Z2H2nPfjxAnyEmvPaoBN71odJN-ikOqJuKlMrZQvxLxlQVI6Wuat01UZUnyQRhfjg_PV-XMRvpCP2tGbKP_IZWO3dpP6VFaYp6urQ7N0qzgeVz-Qs7lsVFxdXL2ek3CK3EhYQ3cEb-o2QR6MtisjxzfdeVYHMkrQAgeMBKNiio5_737pdLfFtrGzjxa0EtQgeCzHvEr3xBSKAbEEu4AR1pk9sapTIkmwB7wCLJatK13Aly5?></g></svg>